<svg width="408.1" height="76.001" viewBox="0 0 408.1 76.001" xmlns="http://www.w3.org/2000/svg"><g id="svgGroup" stroke-linecap="round" fill-rule="evenodd" font-size="9pt" stroke="#ffffff" stroke-width="0.25mm" fill="#ffffff" style="stroke:#ffffff;stroke-width:0.25mm;fill:#ffffff"><path d="M 38.2 29.2 L 34.5 29.2 L 34.5 27.4 L 60.3 27.4 L 60.3 29.2 L 56.2 29.2 L 65.2 62.9 L 74.1 29.2 L 67.2 29.2 L 67.2 27.4 L 80.7 27.4 L 80.7 29.2 L 76.5 29.2 L 64.5 75 L 50.8 75 L 42.1 44.3 L 32.7 75 L 19.3 75 L 4.5 29.2 L 0 29.2 L 0 27.4 L 30.3 27.4 L 30.3 29.2 L 24.3 29.2 L 33.5 63.2 L 40.7 39.8 L 38.2 29.2 Z M 166.7 29.2 L 163 29.2 L 163 27.4 L 188.8 27.4 L 188.8 29.2 L 184.7 29.2 L 193.7 62.9 L 202.6 29.2 L 195.7 29.2 L 195.7 27.4 L 209.2 27.4 L 209.2 29.2 L 205 29.2 L 193 75 L 179.3 75 L 170.6 44.3 L 161.2 75 L 147.8 75 L 133 29.2 L 128.5 29.2 L 128.5 27.4 L 158.8 27.4 L 158.8 29.2 L 152.8 29.2 L 162 63.2 L 169.2 39.8 L 166.7 29.2 Z M 348 1.8 L 348 0 L 372.1 0 L 372.1 36.6 Q 373.7 32 377 29.2 Q 380.3 26.4 387 26.4 Q 402.5 26.4 402.5 43.1 L 402.5 73.2 L 408.1 73.2 L 408.1 75 L 379.8 75 L 379.8 73.2 L 383.9 73.2 L 383.9 40.7 Q 383.9 34.7 383.1 32.95 Q 382.3 31.2 380.2 31.2 Q 377 31.2 374.55 35.4 Q 372.1 39.6 372.1 45.6 L 372.1 73.2 L 376.4 73.2 L 376.4 75 L 348 75 L 348 73.2 L 353.5 73.2 L 353.5 1.8 L 348 1.8 Z M 231.9 51.5 L 234.8 51.5 L 234.8 43.8 Q 234.8 34.3 233.75 31.05 Q 232.7 27.8 229.7 27.8 Q 227.9 27.8 226.45 28.75 Q 225 29.7 225 31.35 Q 225 33 225.6 34.7 L 228.1 34.7 Q 228.9 36.8 228.9 39.75 Q 228.9 42.7 226.4 44.85 Q 223.9 47 220.1 47 Q 211.5 47 211.5 38.7 Q 211.5 26.4 232.4 26.4 Q 244.3 26.4 248.85 30.45 Q 253.4 34.5 253.4 45.3 L 253.4 65.6 Q 253.4 70.8 256.3 70.8 Q 259.7 70.8 260.3 60.5 L 261.8 60.6 Q 261.4 69.4 258.5 72.7 Q 255.6 76 249 76 Q 237 76 235.2 68.6 Q 233.9 72.4 231.3 74.2 Q 228.7 76 223.7 76 Q 208.9 76 208.9 63.9 Q 208.9 56.8 214.55 54.15 Q 220.2 51.5 231.9 51.5 Z M 320.5 48.9 L 320.5 54.1 Q 320.5 64 322.7 68.3 Q 324.9 72.6 330.8 72.6 Q 336.7 72.6 340.2 68.6 Q 343.7 64.6 344.7 59.5 L 346.5 59.7 Q 344.6 68.3 339.5 72.1 Q 334.3 76 325.2 76 Q 313.6 76 307.4 69.75 Q 301.2 63.5 301.2 51.45 Q 301.2 39.4 308.25 32.9 Q 315.3 26.4 327.9 26.4 Q 336.8 26.4 341.5 29.85 Q 346.2 33.3 346.2 38.5 Q 346.2 43.7 343.95 46.1 Q 341.7 48.5 337.75 48.5 Q 333.8 48.5 331.4 46.4 Q 329 44.3 329 40.2 Q 329 38.4 329.5 36.6 L 332.8 36.6 Q 333.5 34.6 333.5 33 Q 333.5 28.2 328.7 28.2 Q 324.3 28.2 322.4 33 Q 320.5 37.8 320.5 48.9 Z M 266.3 60.7 L 266.3 29.2 L 260.8 29.2 L 260.8 27.4 L 266.3 27.4 L 266.3 14.5 L 284.9 9.9 L 284.9 27.4 L 297.9 27.4 L 297.9 29.2 L 284.9 29.2 L 284.9 62.9 Q 284.9 67.6 285.85 69.8 Q 286.8 72 289.8 72 Q 292.8 72 295.05 69 Q 297.3 66 298 60.8 L 299.7 61 Q 298.9 67.9 295.3 71.95 Q 291.7 76 283.4 76 Q 275.1 76 270.7 72.7 Q 266.3 69.4 266.3 60.7 Z M 128.2 49.2 L 100 49.2 L 100 53.1 Q 100 62.9 102.5 67.9 Q 105 72.9 111.2 72.9 Q 122.8 72.9 126.4 60.5 L 128.2 60.8 Q 126.3 68 121.35 72 Q 116.4 76 106.5 76 Q 93.6 76 87.15 69.35 Q 80.7 62.7 80.7 50.85 Q 80.7 39 87.95 32.7 Q 95.2 26.4 106.4 26.4 Q 129.1 26.4 128.2 49.2 Z M 100.1 42.3 L 100.1 47.2 L 110.4 47.2 L 110.4 42.3 Q 110.4 34.2 109.45 31.25 Q 108.5 28.3 105.65 28.3 Q 102.8 28.3 101.45 31.45 Q 100.1 34.6 100.1 42.3 Z M 234.8 62.4 L 234.8 53.1 L 234.1 53.1 Q 227.9 53.1 227.9 62.2 L 227.9 63.8 Q 227.9 69 228.45 70.5 Q 229 72 230.55 72 Q 232.1 72 233.45 69.45 Q 234.8 66.9 234.8 62.4 Z" vector-effect="non-scaling-stroke"/></g></svg>