<?xml version="1.0" encoding="UTF-8"?>
<svg version="1.1" xmlns="http://www.w3.org/2000/svg" width="1024" height="1024">
<path d="M0 0 C3.47711608 0.5994647 6.95855812 1.17266377 10.44000244 1.74636841 C11.4791127 1.91811836 11.4791127 1.91811836 12.53921509 2.09333801 C18.10292851 3.00550172 23.67358046 3.77959416 29.26812744 4.47293091 C33.3105052 4.98830582 37.35193217 5.51086834 41.39312744 6.03543091 C42.14066284 6.13190918 42.88819824 6.22838745 43.65838623 6.32778931 C48.99108388 7.01852321 54.31974979 7.73450778 59.64611816 8.47247314 C61.44835606 8.71880075 63.25153566 8.95835334 65.05566406 9.19042969 C83.97454732 11.63242494 100.99652594 16.69522295 113.90484619 31.80496216 C119.32292292 39.6500638 122.01620986 50.18566191 123.86187744 59.44949341 C124.64223029 63.24797565 125.55737863 67.01334309 126.45562744 70.78543091 C127.50428419 75.18988594 128.5197946 79.59234408 129.39312744 84.03543091 C130.35315674 84.02020386 131.31318604 84.00497681 132.30230713 83.98928833 C145.72722716 83.84881786 159.10035671 84.49037099 172.50613403 85.14633179 C179.74524146 85.50028104 186.98516034 85.83699346 194.22515869 86.17214966 C194.9861342 86.20746292 195.74710972 86.24277618 196.5311451 86.27915955 C218.64097129 87.30167973 240.75907967 88.11897578 262.87709332 88.94133949 C266.84991306 89.08916949 270.82269782 89.23792308 274.79547119 89.38699341 C275.5519161 89.41527222 276.30836102 89.44355103 277.0877285 89.47268677 C285.30790207 89.7812297 293.52396655 90.11770609 301.73687744 90.58621216 C317.16758261 91.46343434 332.63287837 91.6059435 348.08369446 91.86686707 C353.06924855 91.95545178 358.04850888 92.08149506 363.03022766 92.29679871 C366.00453658 92.42202813 368.98016474 92.50479018 371.95562744 92.59793091 C372.97535645 92.66117554 373.99508545 92.72442017 375.04571533 92.7895813 C377.7354701 92.84962572 379.83171316 92.85986939 382.39312744 92.03543091 C384.21612822 90.05409313 385.3274937 88.198049 386.4710083 85.76565552 C386.77530762 85.1946814 387.07960693 84.62370728 387.39312744 84.03543091 C388.05312744 84.03543091 388.71312744 84.03543091 389.39312744 84.03543091 C389.73343994 83.01449341 389.73343994 83.01449341 390.08062744 81.97293091 C391.70538891 78.33656001 393.72116001 75.00713828 396.39312744 72.03543091 C397.05312744 72.03543091 397.71312744 72.03543091 398.39312744 72.03543091 C398.65480713 71.45793091 398.91648682 70.88043091 399.18609619 70.28543091 C402.19276331 64.68076988 407.17611469 59.61281108 412.39312744 56.03543091 C413.05312744 56.03543091 413.71312744 56.03543091 414.39312744 56.03543091 C414.72312744 55.04543091 415.05312744 54.05543091 415.39312744 53.03543091 C422.32242215 47.05517656 430.38216841 42.39896878 438.39312744 38.03543091 C438.98722412 37.71042603 439.5813208 37.38542114 440.19342041 37.05056763 C450.54508196 31.44934449 461.04790519 27.1770394 472.39312744 24.03543091 C473.13997803 23.82370239 473.88682861 23.61197388 474.65631104 23.39382935 C511.00006158 13.57035255 551.66915569 19.72725671 584.52838135 37.06546021 C586.50918699 38.09580071 588.50953704 39.07979467 590.51422119 40.06277466 C602.31259959 45.95126529 612.34696783 54.61567977 622.39312744 63.03543091 C623.01373047 63.54726929 623.6343335 64.05910767 624.27374268 64.5864563 C629.75707009 69.16923992 634.01834166 74.39346579 638.39312744 80.03543091 C639.45273682 81.38894653 639.45273682 81.38894653 640.53375244 82.76980591 C645.3828317 89.1735518 649.0212774 95.76029795 652.39312744 103.03543091 C652.90875244 104.10019653 653.42437744 105.16496216 653.95562744 106.26199341 C670.21293363 140.32104987 673.73558973 183.44361718 661.69781494 219.40652466 C659.78640184 224.72300001 657.74316236 229.8970126 655.39312744 235.03543091 C655.06796143 235.76052856 654.74279541 236.48562622 654.40777588 237.23269653 C646.61808441 254.5509125 646.61808441 254.5509125 640.80328369 262.12527466 C639.40427389 264.02033226 638.38111645 265.9019474 637.39312744 268.03543091 C636.73312744 268.03543091 636.07312744 268.03543091 635.39312744 268.03543091 C635.10437744 268.63355591 634.81562744 269.23168091 634.51812744 269.84793091 C633.39312744 272.03543091 633.39312744 272.03543091 631.39312744 275.03543091 C632.13562744 275.71605591 632.13562744 275.71605591 632.89312744 276.41043091 C634.39312744 278.03543091 634.39312744 278.03543091 634.39312744 280.03543091 C635.22843994 280.34480591 635.22843994 280.34480591 636.08062744 280.66043091 C638.62124946 282.17107102 640.15820241 283.97401266 641.95172119 286.30496216 C643.94916972 288.70298301 646.18000879 290.83520691 648.39312744 293.03543091 C650.06676768 294.71986668 651.7399267 296.40478069 653.41265869 298.09011841 C654.85147202 299.53631364 656.29077225 300.98202235 657.73028564 302.42752075 C658.70938511 303.41164291 659.68758439 304.39666152 660.66485596 305.38259888 C665.94559922 310.70872006 671.23052288 315.9388834 677.03643799 320.69998169 C677.48414551 321.14067993 677.93185303 321.58137817 678.39312744 322.03543091 C678.39312744 322.69543091 678.39312744 323.35543091 678.39312744 324.03543091 C679.71312744 324.69543091 681.03312744 325.35543091 682.39312744 326.03543091 C682.39312744 326.69543091 682.39312744 327.35543091 682.39312744 328.03543091 C683.71312744 328.69543091 685.03312744 329.35543091 686.39312744 330.03543091 C686.39312744 330.69543091 686.39312744 331.35543091 686.39312744 332.03543091 C687.71312744 332.69543091 689.03312744 333.35543091 690.39312744 334.03543091 C690.39312744 334.69543091 690.39312744 335.35543091 690.39312744 336.03543091 C691.71312744 336.69543091 693.03312744 337.35543091 694.39312744 338.03543091 C694.39312744 338.69543091 694.39312744 339.35543091 694.39312744 340.03543091 C695.71312744 340.69543091 697.03312744 341.35543091 698.39312744 342.03543091 C698.39312744 342.69543091 698.39312744 343.35543091 698.39312744 344.03543091 C699.38312744 344.36543091 700.37312744 344.69543091 701.39312744 345.03543091 C702.78765869 346.48855591 702.78765869 346.48855591 704.20562744 348.28543091 C706.16893367 350.66944562 707.9258158 352.4774489 710.33062744 354.47293091 C715.26903462 358.60506753 721.77819407 364.36566725 722.87750244 370.92605591 C723.61361429 380.2357058 723.16061003 386.69766559 717.23297119 394.17605591 C711.55286927 399.91645616 703.47441668 403.0127498 695.51812744 403.47293091 C690.24648135 403.38507014 686.27459242 401.61331762 682.39312744 398.03543091 C682.39312744 397.37543091 682.39312744 396.71543091 682.39312744 396.03543091 C681.07312744 395.37543091 679.75312744 394.71543091 678.39312744 394.03543091 C678.39312744 393.37543091 678.39312744 392.71543091 678.39312744 392.03543091 C677.80144775 391.7814856 677.20976807 391.52754028 676.60015869 391.26589966 C674.15003014 389.89989878 672.85716924 388.5060688 671.08062744 386.34793091 C665.477363 379.31789418 665.477363 379.31789418 658.39312744 374.03543091 C658.39312744 373.37543091 658.39312744 372.71543091 658.39312744 372.03543091 C657.07312744 371.37543091 655.75312744 370.71543091 654.39312744 370.03543091 C654.39312744 369.37543091 654.39312744 368.71543091 654.39312744 368.03543091 C653.07312744 367.37543091 651.75312744 366.71543091 650.39312744 366.03543091 C650.39312744 365.37543091 650.39312744 364.71543091 650.39312744 364.03543091 C649.07312744 363.37543091 647.75312744 362.71543091 646.39312744 362.03543091 C646.39312744 361.37543091 646.39312744 360.71543091 646.39312744 360.03543091 C645.07312744 359.37543091 643.75312744 358.71543091 642.39312744 358.03543091 C642.39312744 357.37543091 642.39312744 356.71543091 642.39312744 356.03543091 C641.07312744 355.37543091 639.75312744 354.71543091 638.39312744 354.03543091 C638.39312744 353.37543091 638.39312744 352.71543091 638.39312744 352.03543091 C637.81337158 351.78019653 637.23361572 351.52496216 636.6362915 351.26199341 C634.16297432 349.90958314 632.49710635 348.39810567 630.50250244 346.41043091 C629.79351807 345.70402466 629.08453369 344.99761841 628.35406494 344.26980591 C627.62445557 343.53246216 626.89484619 342.79511841 626.14312744 342.03543091 C625.39804932 341.29808716 624.65297119 340.56074341 623.88531494 339.80105591 C622.82957275 338.74144653 622.82957275 338.74144653 621.75250244 337.66043091 C621.10764893 337.01332153 620.46279541 336.36621216 619.79840088 335.69949341 C618.39312744 334.03543091 618.39312744 334.03543091 618.39312744 332.03543091 C617.07312744 331.37543091 615.75312744 330.71543091 614.39312744 330.03543091 C614.39312744 329.37543091 614.39312744 328.71543091 614.39312744 328.03543091 C613.73312744 328.03543091 613.07312744 328.03543091 612.39312744 328.03543091 C610.91265869 326.49636841 610.91265869 326.49636841 609.20562744 324.41043091 C606.28306114 320.94755823 603.23481842 318.06032183 599.67828369 315.26199341 C599.25418213 314.85722778 598.83008057 314.45246216 598.39312744 314.03543091 C598.39312744 313.37543091 598.39312744 312.71543091 598.39312744 312.03543091 C597.07312744 311.37543091 595.75312744 310.71543091 594.39312744 310.03543091 C594.39312744 309.37543091 594.39312744 308.71543091 594.39312744 308.03543091 C593.30515869 308.56652466 592.21718994 309.09761841 591.09625244 309.64480591 C582.66287782 313.71702015 574.37560789 317.32466863 565.39312744 320.03543091 C564.46371338 320.36027466 563.53429932 320.68511841 562.57672119 321.01980591 C533.76667824 330.78592216 504.69450561 329.74472174 475.39312744 323.03543091 C473.81589577 322.69789589 472.23785037 322.36412432 470.65875244 322.03543091 C467.5650339 321.38935314 464.47732393 320.7251694 461.39312744 320.03543091 C461.06312744 321.35543091 460.73312744 322.67543091 460.39312744 324.03543091 C459.73312744 324.03543091 459.07312744 324.03543091 458.39312744 324.03543091 C458.301604 324.61293091 458.21008057 325.19043091 458.11578369 325.78543091 C456.38341302 331.17919042 450.64865125 335.61137791 445.83062744 338.34793091 C433.56011859 343.79613327 418.81547023 343.97062111 405.61846924 344.32644653 C393.41845444 344.65692965 381.37421653 345.64662485 369.24200439 346.94680786 C361.16278545 347.79965216 353.12551671 348.44043469 345.00323486 348.65652466 C339.45500134 348.83260083 333.98805663 349.38833813 328.47515869 350.00418091 C319.56425378 350.98873561 310.67897699 351.49840675 301.7243042 351.86941528 C288.98687175 352.40623466 276.40795161 353.20360011 263.76837158 354.92752075 C254.76650353 356.10645243 245.76609939 356.6239538 236.70562744 357.09793091 C233.7225241 357.25621557 230.73945272 357.4150949 227.75640869 357.57449341 C227.03903534 357.61281784 226.32166199 357.65114227 225.58255005 357.69062805 C219.17948408 358.03753003 212.78454311 358.45077241 206.39312744 358.97293091 C205.50407715 359.03553101 204.61502686 359.0981311 203.69903564 359.16262817 C199.47601022 359.53204217 197.14239208 359.76756072 194.39312744 363.03543091 C193.54850063 364.45429244 192.73964051 365.89469796 191.95562744 367.34793091 C188.03446849 374.06427369 182.89011868 379.68392027 177.74371338 385.47146606 C176.49226612 386.92062933 175.31758602 388.43513376 174.15093994 389.95339966 C173.28082275 390.98400513 173.28082275 390.98400513 172.39312744 392.03543091 C171.73312744 392.03543091 171.07312744 392.03543091 170.39312744 392.03543091 C170.06312744 393.35543091 169.73312744 394.67543091 169.39312744 396.03543091 C168.73312744 396.03543091 168.07312744 396.03543091 167.39312744 396.03543091 C166.23686459 402.63217213 166.23686459 402.63217213 167.58062744 409.03543091 C170.14856949 411.86902214 172.19243972 412.92409661 176.02233386 413.27922523 C177.53546975 413.27483363 177.53546975 413.27483363 179.07917404 413.27035332 C180.24565877 413.27186862 181.41214349 413.27338392 182.61397624 413.27494514 C183.89644465 413.26639098 185.17891305 413.25783682 186.50024414 413.24902344 C187.87567716 413.24703159 189.25111171 413.24593205 190.62654614 413.24564946 C194.41024979 413.24235401 198.19381611 413.22660612 201.97747612 413.20892596 C206.0566555 413.19208468 210.13585067 413.18687071 214.21505737 413.18041992 C221.28571785 413.16781465 228.35633227 413.14832807 235.42696381 413.12462997 C245.6586574 413.09069799 255.8903395 413.07157677 266.1220769 413.0568725 C282.73327405 413.03296972 299.34445318 413.00306856 315.95562744 412.96658325 C317.44738471 412.96331288 317.44738471 412.96331288 318.96927848 412.95997645 C333.07925579 412.92876302 347.18921111 412.89157797 361.29916707 412.8519807 C362.78910519 412.84780076 362.78910519 412.84780076 364.30914307 412.84353638 C365.79726667 412.83935579 365.79726667 412.83935579 367.31545338 412.83509074 C383.85898685 412.78901626 400.4025061 412.75838756 416.9460938 412.7404176 C427.15118213 412.72871148 437.35607545 412.70396549 447.56108692 412.66247202 C454.55535608 412.63504787 461.54955709 412.62206961 468.54387948 412.62045179 C472.57935114 412.61904421 476.61453188 412.61106373 480.64992905 412.58552551 C484.34623154 412.56225642 488.04208192 412.55754515 491.73844019 412.56740989 C493.70477134 412.56785452 495.67107649 412.54852468 497.63730502 412.52842987 C505.62357232 412.57410343 511.31698753 413.36922537 517.45172119 418.88699341 C517.90676025 419.47222778 518.36179932 420.05746216 518.83062744 420.66043091 C519.30371338 421.25082153 519.77679932 421.84121216 520.26422119 422.44949341 C524.09594995 427.83247568 523.2933882 436.66574672 522.39312744 443.03543091 C520.94628372 446.59689239 519.24908581 449.43843249 516.39312744 452.03543091 C515.73312744 452.03543091 515.07312744 452.03543091 514.39312744 452.03543091 C514.06312744 453.02543091 513.73312744 454.01543091 513.39312744 455.03543091 C503.89305435 459.42424795 492.58019655 458.32314102 482.39312744 458.03543091 C482.39312744 458.69543091 482.39312744 459.35543091 482.39312744 460.03543091 C482.95515869 460.10890747 483.51718994 460.18238403 484.09625244 460.25808716 C487.23249073 461.31950114 488.83777402 463.11860756 491.14312744 465.47293091 C491.94234619 466.27601685 492.74156494 467.07910278 493.56500244 467.90652466 C495.39312744 470.03543091 495.39312744 470.03543091 495.39312744 472.03543091 C496.38312744 472.36543091 497.37312744 472.69543091 498.39312744 473.03543091 C498.39312744 474.02543091 498.39312744 475.01543091 498.39312744 476.03543091 C499.05312744 476.03543091 499.71312744 476.03543091 500.39312744 476.03543091 C508.25250603 489.59435886 509.31669791 505.34831214 506.07281494 520.59011841 C503.46220709 529.98230526 497.14520969 538.96861575 489.74981689 545.2048645 C489.12081985 545.73727753 488.49182281 546.26969055 487.84376526 546.8182373 C487.36505478 547.21991119 486.8863443 547.62158508 486.39312744 548.03543091 C487.15219265 548.03874105 487.91125786 548.0420512 488.69332504 548.04546165 C507.1543798 548.12664599 525.61535072 548.21872341 544.07629013 548.32295799 C553.0038252 548.37310155 561.93135101 548.41954427 570.85894775 548.45730591 C578.63931401 548.49022439 586.41960874 548.5300548 594.1998961 548.57822096 C598.32033118 548.6034874 602.44071882 548.62526825 606.56121063 548.63877487 C610.43865221 548.65159393 614.31593107 548.6736466 618.19328308 548.7028141 C619.6170857 548.7118911 621.04091452 548.7175804 622.46474457 548.71964455 C624.40768569 548.72296603 626.35059045 548.73961769 628.29345703 548.75695801 C629.38117275 548.76248877 630.46888847 548.76801952 631.58956528 548.77371788 C634.40024411 549.03609525 636.03831028 549.51466013 638.39312744 551.03543091 C640.44236474 554.006825 640.83872774 556.4706285 640.39312744 560.03543091 C639.47008228 562.16022062 639.47008228 562.16022062 637.39312744 564.03543091 C634.22376403 564.66151849 631.07045234 564.57107025 627.84934998 564.53879547 C626.85402351 564.54460923 625.85869704 564.550423 624.83320916 564.55641294 C621.46516517 564.57112489 618.09783722 564.55707534 614.72979736 564.54336548 C612.30395984 564.54796995 609.87812511 564.5543198 607.45229626 564.56227446 C602.1611706 564.57554143 596.8702603 564.57626308 591.57914352 564.56608582 C583.71128347 564.5509932 575.84356171 564.55867128 567.97570267 564.57091904 C553.92604645 564.5920147 539.87646284 564.59014348 525.82679966 564.57860339 C513.53195573 564.56855386 501.23713846 564.56590843 488.94229126 564.57069397 C488.12776095 564.57099951 487.31323063 564.57130505 486.47401758 564.57161985 C483.16784022 564.57286514 479.86166286 564.57413873 476.55548553 564.5754589 C445.52068032 564.58770374 414.48592146 564.57658707 383.4511234 564.55507132 C355.85917544 564.53608791 328.26730132 564.53778638 300.675354 564.55691528 C269.69847766 564.57831893 238.72164227 564.58683545 207.74475956 564.57446623 C204.44449426 564.5731833 201.14422894 564.57193194 197.84396362 564.57069397 C197.03131291 564.57037766 196.2186622 564.57006135 195.38138571 564.56973546 C183.09218741 564.56517941 170.80301867 564.5705181 158.51382446 564.58061218 C144.54493632 564.59202849 130.57613235 564.58923433 116.60725474 564.56748921 C108.78268129 564.55571169 100.95828998 564.55502364 93.13372111 564.5700739 C87.30386339 564.58005379 81.474168 564.56929252 75.64432871 564.55017561 C73.27628132 564.54568082 70.90820974 564.54803951 68.5401777 564.55767876 C65.33873022 564.56971802 62.13829794 564.557495 58.93690491 564.53879547 C57.5349801 564.55284247 57.5349801 564.55284247 56.10473359 564.56717324 C49.91575926 564.49415816 49.91575926 564.49415816 47.32789135 562.22272062 C45.91805913 558.92380046 45.88739131 556.5755838 46.39312744 553.03543091 C48.56543496 550.41788984 50.3660718 549.1969779 53.75351906 548.66416168 C56.80358826 548.50084077 59.83010856 548.47549734 62.88458252 548.48953247 C64.04598755 548.47919479 65.20739258 548.46885712 66.4039917 548.45820618 C70.24035465 548.42872381 74.07619124 548.42727778 77.91265869 548.42605591 C80.57354954 548.41107793 83.2343852 548.39454653 85.89524841 548.37594604 C92.1814138 548.33541121 98.46747552 548.31505135 104.75375146 548.30197215 C111.91222796 548.28609349 119.07052825 548.24767431 126.22890246 548.20737886 C140.95023987 548.12501458 155.67160055 548.07090082 170.39312744 548.03543091 C169.43938232 547.24700806 168.48563721 546.45858521 167.50299072 545.64627075 C157.67865181 537.52488364 151.5368525 526.48381281 150.14068604 513.72927856 C148.96221786 497.03486595 152.37521568 483.69411153 162.39312744 470.03543091 C162.82625244 469.4308606 163.25937744 468.82629028 163.70562744 468.20339966 C166.72638275 464.2784051 170.31661863 461.75310345 174.39312744 459.03543091 C170.62805901 457.91392116 166.94215762 456.94439117 163.08062744 456.22293091 C152.5933764 453.91218068 141.42784908 447.14624011 134.39312744 439.03543091 C134.39312744 438.04543091 134.39312744 437.05543091 134.39312744 436.03543091 C133.40312744 435.70543091 132.41312744 435.37543091 131.39312744 435.03543091 C129.89312744 432.84793091 129.89312744 432.84793091 128.39312744 430.03543091 C127.89812744 429.12793091 127.40312744 428.22043091 126.89312744 427.28543091 C123.40526296 419.7283912 121.8316984 413.12672641 121.89312744 404.78543091 C121.90279541 403.40399902 121.90279541 403.40399902 121.91265869 401.99465942 C122.38796463 384.16912304 133.38066281 371.30640065 144.07281494 357.96902466 C146.42012389 355.0827985 146.42012389 355.0827985 148.39312744 352.03543091 C149.05312744 352.03543091 149.71312744 352.03543091 150.39312744 352.03543091 C150.15078369 351.35480591 149.90843994 350.67418091 149.65875244 349.97293091 C145.97612455 339.32163793 143.3319448 328.47085006 140.94390869 317.46511841 C136.66282924 298.57978921 131.38341894 279.89322085 126.36187744 261.19558716 C124.85975288 255.59106939 123.373156 249.98992116 122.01812744 244.34793091 C120.66429074 238.8507588 119.03906117 233.45035781 117.39312744 228.03543091 C115.17762969 220.74514087 113.1453298 213.45272922 111.39312744 206.03543091 C108.04884549 192.22804461 104.22360745 178.54862686 100.09283447 164.95657349 C99.07065598 161.54661666 98.17804116 158.1506473 97.43609619 154.66824341 C96.36070731 149.68234949 94.89862654 144.84344409 93.39312744 139.97293091 C91.76703512 134.68813087 90.1894637 129.417542 88.88482666 124.04348755 C87.96253357 120.27692319 86.94926772 116.53367977 85.95562744 112.78543091 C84.55767778 107.50349754 83.18024332 102.22070329 81.89312744 96.91043091 C80.51745791 91.32958976 78.88157963 85.83697827 77.23345947 80.33206177 C75.96471096 76.06816395 74.80751634 71.80007101 73.76812744 67.47293091 C72.62370565 62.80523305 71.3788725 58.4206179 69.39312744 54.03543091 C65.90026761 52.8711443 62.46758333 52.51018348 58.83062744 52.09793091 C54.32963547 51.56539944 49.88672123 51.00904494 45.45562744 50.03543091 C40.94042234 49.05586099 36.41763705 48.54044089 31.83062744 48.03543091 C26.70924152 47.47012971 21.7662759 46.78205154 16.76031494 45.53543091 C13.49225034 44.84514664 10.20626262 44.45531339 6.89312744 44.03543091 C2.07699502 43.42264269 -2.58905683 42.68989 -7.29827881 41.52371216 C-10.23724124 40.9021042 -13.18811513 40.5883313 -16.16937256 40.22293091 C-23.77903583 39.09392713 -29.68230288 36.0543494 -34.60687256 30.03543091 C-38.23340604 24.72514974 -38.30477448 19.26216621 -37.60687256 13.03543091 C-36.58734131 10.19558716 -36.58734131 10.19558716 -35.60687256 8.03543091 C-34.94687256 8.03543091 -34.28687256 8.03543091 -33.60687256 8.03543091 C-33.54499756 7.45793091 -33.48312256 6.88043091 -33.41937256 6.28543091 C-32.24737486 3.03989882 -30.45025961 1.93102227 -27.60687256 0.03543091 C-18.81798443 -3.95951824 -9.12635795 -1.57685498 0 0 Z M85.39312744 33.03543091 C87.28848197 47.5997341 91.15864035 61.53274614 95.28668213 75.59011841 C96.69609137 80.42344257 97.93853631 85.24532002 98.95904541 90.17630005 C99.37699088 92.17700955 99.37699088 92.17700955 100.39312744 94.53543091 C101.53824163 97.39821639 102.13467653 100.28423816 102.77593994 103.29324341 C104.93069094 112.86688394 107.74198208 122.29631953 110.45562744 131.72293091 C112.31412007 138.17892845 114.10224939 144.63444243 115.68609619 151.16433716 C116.842066 155.85846869 118.10919595 160.52259536 119.36187744 165.19168091 C120.35906042 168.90845384 121.34502425 172.62807371 122.33062744 176.34793091 C124.05183126 182.81094918 125.83249307 189.25626096 127.6428833 195.69485474 C128.59538955 199.09644196 129.51806121 202.49871203 130.35797119 205.92996216 C131.54833751 210.75367266 132.9458234 215.51463589 134.33062744 220.28543091 C136.25828787 226.97441841 138.11110404 233.66396528 139.75250244 240.42996216 C140.6311539 244.00350192 141.60956047 247.54684801 142.58843994 251.09402466 C143.48212116 254.3607332 144.34319777 257.63533643 145.20562744 260.91043091 C146.877279 267.20484198 148.65214769 273.46513363 150.45562744 279.72293091 C152.58673529 287.12777288 154.59632359 294.54144413 156.39312744 302.03543091 C160.0305852 317.27266491 160.0305852 317.27266491 164.47515869 332.28152466 C166.64273673 341.14553529 168.22889604 354.67451296 163.60406494 362.91433716 C161.6675359 365.48383064 159.63561489 367.73788239 157.39312744 370.03543091 C157.39312744 370.69543091 157.39312744 371.35543091 157.39312744 372.03543091 C156.73312744 372.03543091 156.07312744 372.03543091 155.39312744 372.03543091 C153.57208544 374.21001369 153.57208544 374.21001369 151.76812744 376.91043091 C151.13648682 377.81535278 150.50484619 378.72027466 149.85406494 379.65261841 C148.21889639 381.85376796 148.21889639 381.85376796 148.39312744 384.03543091 C147.73312744 384.03543091 147.07312744 384.03543091 146.39312744 384.03543091 C145.24482767 386.30504691 144.09940766 388.57603869 142.95562744 390.84793091 C142.63013916 391.49052856 142.30465088 392.13312622 141.96929932 392.79519653 C138.68131739 399.33726367 137.25497587 404.05935556 139.28765869 411.16043091 C140.28067501 414.13597096 141.31029791 417.09148813 142.39312744 420.03543091 C143.05312744 420.03543091 143.71312744 420.03543091 144.39312744 420.03543091 C144.82625244 421.18011841 144.82625244 421.18011841 145.26812744 422.34793091 C146.35581757 425.18572398 146.35581757 425.18572398 148.39312744 428.03543091 C149.05312744 428.03543091 149.71312744 428.03543091 150.39312744 428.03543091 C150.88812744 429.52043091 150.88812744 429.52043091 151.39312744 431.03543091 C161.004497 439.55459938 173.27748636 440.63062523 185.62963867 440.5231781 C187.01783308 440.52564483 188.40602526 440.52986788 189.79420972 440.53567284 C193.57119718 440.5464596 197.34773642 440.53259298 201.12468004 440.51435244 C205.21176765 440.49903662 209.29882125 440.50702335 213.38592529 440.51203918 C221.37428796 440.51824273 229.36247638 440.50333206 237.35080561 440.48131356 C246.65264815 440.45656303 255.95445932 440.45370652 265.25632992 440.4519098 C281.84395923 440.44803971 298.4315102 440.42561057 315.019104 440.39212036 C331.12327401 440.3596327 347.22740264 440.33842719 363.331604 440.33059692 C364.32527972 440.33011143 365.31895543 440.32962594 366.34274253 440.32912574 C370.33662202 440.32719712 374.33050152 440.32528499 378.32438104 440.32340964 C393.6700018 440.31588776 409.01561577 440.30026193 424.36122821 440.28291303 C428.99932749 440.27767262 433.63742664 440.27273962 438.275527 440.26855111 C448.02169974 440.25964639 457.76785265 440.24790604 467.5140079 440.22698507 C471.54450422 440.21836591 475.57498671 440.21129189 479.60549164 440.20846939 C483.28861905 440.20581438 486.97170653 440.19855967 490.65481797 440.18747892 C492.63081779 440.18272135 494.60682752 440.18287772 496.58283305 440.1831606 C498.31897518 440.17647384 498.31897518 440.17647384 500.09019089 440.16965199 C501.09737695 440.16786341 502.104563 440.16607484 503.14226985 440.16423208 C505.36274468 440.28766537 505.36274468 440.28766537 506.39312744 439.03543091 C506.55979411 436.03543091 506.55979411 436.03543091 506.39312744 433.03543091 C504.22217786 430.86448132 499.06680776 431.88034234 496.04966736 431.87721252 C494.55839466 431.86980556 494.55839466 431.86980556 493.03699523 431.86224896 C489.6748321 431.84678302 486.31268823 431.83848703 482.95050049 431.83010864 C480.54839915 431.82053313 478.14629951 431.81052325 475.74420166 431.80010986 C469.86140629 431.77575587 463.97860581 431.75604167 458.09578761 431.73835712 C451.18344185 431.71735334 444.2711201 431.69089502 437.35879443 431.66418565 C424.94097077 431.61637047 412.52313528 431.57320394 400.10528564 431.53274536 C388.20878958 431.49397865 376.3123073 431.45258226 364.41583252 431.40774536 C363.69230405 431.40501906 362.96877559 431.40229276 362.22332202 431.39948384 C359.31013478 431.38850131 356.39694755 431.37751507 353.48376035 431.36652019 C342.02694194 431.32336266 330.57011589 431.28229294 319.11328854 431.24158364 C315.59425338 431.22907829 312.07521852 431.21649752 308.55618429 431.20373106 C269.3250827 431.05148675 269.3250827 431.05148675 230.09380329 431.07129228 C227.57560891 431.07871421 225.05741387 431.0850991 222.53921604 431.09122181 C213.78909474 431.11226697 213.78909474 431.11226697 205.03909874 431.16116142 C167.98093994 431.42730591 167.98093994 431.42730591 155.39312744 423.03543091 C154.89812744 421.55043091 154.89812744 421.55043091 154.39312744 420.03543091 C153.73312744 420.03543091 153.07312744 420.03543091 152.39312744 420.03543091 C149.99473475 411.72671338 147.98471559 403.79711576 150.08062744 395.22293091 C151.41255579 393.00305033 152.93566836 391.44942289 154.82672119 389.69949341 C157.79219778 386.54913673 160.14878692 382.90305367 162.62359619 379.36355591 C164.39312744 377.03543091 164.39312744 377.03543091 166.39312744 376.03543091 C167.41450201 374.38177684 168.40925039 372.71166589 169.39312744 371.03543091 C170.19750244 370.02480591 171.00187744 369.01418091 171.83062744 367.97293091 C178.65688987 358.33342093 179.39358026 347.41407499 178.39312744 336.03543091 C177.71991878 332.8582735 176.61656982 330.03467151 175.39312744 327.03543091 C173.27210602 320.55859537 171.33425881 314.10075774 169.94000244 307.42996216 C168.84596217 302.6396287 167.40203341 297.94022383 166.02886963 293.22390747 C164.76478665 288.87243288 163.51681223 284.51634353 162.26812744 280.16043091 C162.01450439 279.28096802 161.76088135 278.40150513 161.49957275 277.49539185 C160.02735271 272.3630422 158.6666691 267.2205648 157.39312744 262.03543091 C155.16950828 253.43406771 152.78994019 244.88457652 150.33062744 236.34793091 C148.1996394 228.94319237 146.18699668 221.5300625 144.39312744 214.03543091 C141.75422713 203.15575418 138.74620482 192.38826607 135.71099854 181.61404419 C135.25889604 180.00883726 134.80771574 178.40337028 134.35748291 176.79763794 C133.93807806 175.30191773 133.51668853 173.80675187 133.09283447 172.31228638 C131.87129508 167.95197051 130.83391904 163.57854306 129.87335205 159.15383911 C129.20451906 156.20342533 128.37237145 153.31203661 127.51812744 150.41043091 C126.1251106 145.61169274 124.78848394 140.80557876 123.51812744 135.97293091 C121.62349136 128.79286163 119.58381089 121.65839758 117.49908447 114.53128052 C116.11422482 109.75017386 114.89407145 104.97471943 113.84918213 100.10818481 C113.18716834 97.09935342 112.38736656 94.13335038 111.58062744 91.16043091 C111.23141031 89.86362557 110.88246573 88.56674682 110.53375244 87.26980591 C110.35006104 86.58853638 110.16636963 85.90726685 109.97711182 85.20535278 C108.91961753 81.27600109 107.87263838 77.34391451 106.83062744 73.41043091 C106.6155957 72.60307495 106.40056396 71.79571899 106.17901611 70.96389771 C104.95398023 66.32103531 103.873405 61.6749402 102.89312744 56.97293091 C100.78925808 47.78603471 97.42273011 40.35257272 89.39312744 35.03543091 C88.07165105 34.34555964 86.74088024 33.67244317 85.39312744 33.03543091 Z M475.39312744 45.03543091 C474.75568604 45.25424927 474.11824463 45.47306763 473.46148682 45.69851685 C466.8672113 47.96680952 460.50039162 50.67067404 454.39312744 54.03543091 C453.05894775 54.75472778 453.05894775 54.75472778 451.69781494 55.48855591 C443.65708565 59.98128716 436.53995171 65.27000623 429.39312744 71.03543091 C428.69058838 71.59359497 427.98804932 72.15175903 427.26422119 72.72683716 C423.52038193 75.80063807 420.35400398 79.20074413 417.22125244 82.89089966 C415.26095808 85.19047574 413.23631897 87.42290969 411.20562744 89.66043091 C408.27034319 92.9626257 405.71874664 96.26632393 403.39312744 100.03543091 C402.99480713 100.66191528 402.59648682 101.28839966 402.18609619 101.93386841 C398.07178301 108.42230188 394.25008625 114.87980722 391.39312744 122.03543091 C391.01156494 122.94937622 390.63000244 123.86332153 390.23687744 124.80496216 C377.93914776 155.21184866 376.38612318 190.2685162 388.64312744 220.97293091 C389.53800414 223.00350739 390.45677659 225.0236426 391.39312744 227.03543091 C391.82649414 227.97370728 391.82649414 227.97370728 392.26861572 228.93093872 C396.508543 238.02686989 401.24702472 246.06062201 407.39312744 254.03543091 C408.13512679 255.15200871 408.86700221 256.27550886 409.58062744 257.41043091 C411.59852457 260.33290261 413.82308136 262.58492185 416.39312744 265.03543091 C417.49823901 266.15950272 418.60233621 267.28457235 419.70562744 268.41043091 C429.73972697 279.35885215 429.73972697 279.35885215 442.39312744 285.03543091 C442.39312744 285.69543091 442.39312744 286.35543091 442.39312744 287.03543091 C446.19740237 289.23681751 446.19740237 289.23681751 450.39312744 290.03543091 C450.39312744 290.69543091 450.39312744 291.35543091 450.39312744 292.03543091 C455.85384163 294.88610882 461.24972834 297.19074381 467.08062744 299.16043091 C468.54318785 299.66210071 470.00543601 300.16468192 471.46734619 300.66824341 C472.15554443 300.90333618 472.84374268 301.13842896 473.55279541 301.38064575 C474.99520646 301.8938517 476.4132335 302.47566991 477.81890869 303.08230591 C505.91156138 313.48383437 540.53083107 309.87154379 567.55084229 298.09500122 C569.47586815 297.19221062 571.37498287 296.25318041 573.26812744 295.28543091 C573.93650635 294.94689087 574.60488525 294.60835083 575.29351807 294.259552 C581.83132196 290.89614625 588.44664458 287.37310505 594.39312744 283.03543091 C594.39312744 282.37543091 594.39312744 281.71543091 594.39312744 281.03543091 C595.71312744 280.70543091 597.03312744 280.37543091 598.39312744 280.03543091 C598.39312744 279.37543091 598.39312744 278.71543091 598.39312744 278.03543091 C598.97836182 277.76601685 599.56359619 277.49660278 600.16656494 277.21902466 C608.14365618 272.97857089 614.7731689 264.97976492 620.39312744 258.03543091 C620.39312744 257.37543091 620.39312744 256.71543091 620.39312744 256.03543091 C621.05312744 256.03543091 621.71312744 256.03543091 622.39312744 256.03543091 C622.72312744 254.71543091 623.05312744 253.39543091 623.39312744 252.03543091 C624.05312744 252.03543091 624.71312744 252.03543091 625.39312744 252.03543091 C626.81225295 249.53679966 628.22846584 247.03658809 629.64312744 244.53543091 C630.03886963 243.83933716 630.43461182 243.14324341 630.84234619 242.42605591 C634.94267831 235.1664515 638.68386976 227.93847289 641.39312744 220.03543091 C641.7862915 218.96164185 642.17945557 217.88785278 642.58453369 216.78152466 C652.53875505 188.42287067 651.60635597 157.1297636 641.39312744 129.03543091 C640.8807251 127.62197388 640.8807251 127.62197388 640.35797119 126.17996216 C639.43298082 123.76450146 638.4442749 121.39847559 637.39312744 119.03543091 C637.06054932 118.28777466 636.72797119 117.54011841 636.38531494 116.76980591 C633.71150419 111.12301677 630.52804329 105.79545874 627.26812744 100.47293091 C626.83613037 99.75734009 626.4041333 99.04174927 625.95904541 98.30447388 C623.52521922 94.17651642 623.52521922 94.17651642 619.39312744 92.03543091 C619.26937744 91.45793091 619.14562744 90.88043091 619.01812744 90.28543091 C618.09416323 86.95915975 615.85641715 85.41903614 613.39312744 83.03543091 C612.57715088 82.18464966 611.76117432 81.33386841 610.92047119 80.45730591 C604.55619055 73.89144172 597.92396715 68.27210753 590.39312744 63.03543091 C589.10342041 62.12857544 589.10342041 62.12857544 587.78765869 61.20339966 C572.49877603 50.95684138 555.3727082 44.52036199 537.39312744 41.03543091 C536.66537109 40.86342163 535.93761475 40.69141235 535.18780518 40.51419067 C531.62981927 39.90466762 528.11396929 39.81573527 524.51422119 39.76199341 C523.37334801 39.74326927 523.37334801 39.74326927 522.20942688 39.72416687 C506.01057125 39.50969644 490.80937132 39.41476426 475.39312744 45.03543091 Z M134.39312744 103.03543091 C134.28361443 107.14714659 134.27820745 110.56024163 135.76812744 114.41043091 C137.0722506 118.0316473 138.00873099 121.5662403 138.79937744 125.32839966 C140.03212176 130.94874055 141.48041698 136.519017 142.90386963 142.09353638 C143.35505989 143.88433843 143.78523159 145.68040117 144.21343994 147.47683716 C144.45836182 148.4655481 144.70328369 149.45425903 144.95562744 150.47293091 C145.1631665 151.33789185 145.37070557 152.20285278 145.58453369 153.09402466 C145.9847876 154.05502075 145.9847876 154.05502075 146.39312744 155.03543091 C150.06013197 156.25776575 153.5072019 156.26732764 157.33062744 156.35183716 C158.52184204 156.3830088 158.52184204 156.3830088 159.73712158 156.41481018 C161.42839194 156.45809747 163.11972108 156.49913655 164.81109619 156.53811646 C167.32818643 156.59642651 169.84500121 156.66194197 172.36187744 156.72879028 C183.70726469 157.01694171 195.0444585 157.08597999 206.39312744 157.03543091 C206.23714886 155.59204408 206.07992776 154.14879149 205.92218018 152.70559692 C205.7910508 151.50000877 205.7910508 151.50000877 205.65727234 150.27006531 C205.36642561 147.80953658 204.94615261 145.40123317 204.45562744 142.97293091 C203.60304438 138.46552487 202.99421346 133.965971 202.45562744 129.41043091 C201.75763993 123.56980402 200.87520654 117.79927999 199.82672119 112.01199341 C199.68842896 111.23895874 199.55013672 110.46592407 199.40765381 109.66946411 C199.07135259 107.79111651 198.73251181 105.91322388 198.39312744 104.03543091 C166.39784168 103.14374946 166.39784168 103.14374946 134.39312744 103.03543091 Z M213.39312744 105.03543091 C214.61467396 114.6310003 215.9576429 124.21049825 217.33062744 133.78543091 C217.48821533 134.92085327 217.64580322 136.05627563 217.8081665 137.22610474 C218.84102324 144.33967268 220.32214578 151.15121415 222.39312744 158.03543091 C227.77817175 158.32603395 233.16349497 158.61054459 238.5491333 158.8899231 C240.37311029 158.98534048 242.1970078 159.08229203 244.02081299 159.18093872 C255.82458448 159.81810182 267.57193348 160.17497119 279.39312744 160.03543091 C278.19161435 143.81932362 278.19161435 143.81932362 275.82672119 127.74636841 C275.1428391 123.47056507 274.94872457 119.16961223 274.73687744 114.84793091 C274.38617858 111.9785766 274.01619507 110.40722493 272.39312744 108.03543091 C270.24653483 107.3570999 270.24653483 107.3570999 267.60797119 107.35183716 C266.52886475 107.2965686 265.4497583 107.24130005 264.33795166 107.18435669 C263.03615967 107.13521118 261.73436768 107.08606567 260.39312744 107.03543091 C258.77987884 106.95314514 257.16676594 106.86817111 255.55377197 106.78103638 C250.97601985 106.53744898 246.39750058 106.31728957 241.81817627 106.10549927 C238.93743381 105.97208834 236.05687961 105.83505823 233.17633057 105.69754028 C231.33324153 105.61074091 229.49014289 105.52414501 227.64703369 105.43777466 C226.79178604 105.39716415 225.93653839 105.35655365 225.05537415 105.31471252 C221.16419462 105.13604452 217.28976046 104.98443952 213.39312744 105.03543091 Z M288.39312744 108.03543091 C289.78306029 128.42253557 289.78306029 128.42253557 292.51812744 148.66043091 C292.79076416 150.34459106 292.79076416 150.34459106 293.06890869 152.06277466 C293.5007596 154.72206708 293.94180386 157.37938836 294.39312744 160.03543091 C308.77672251 161.05527494 323.10309341 161.15515913 337.51812744 161.09793091 C339.74859518 161.09290075 341.97906402 161.08834055 344.20953369 161.08425903 C349.60408973 161.07338528 354.99860316 161.05676978 360.39312744 161.03543091 C360.502164 160.31380768 360.61120056 159.59218445 360.72354126 158.84869385 C362.65807502 146.09670949 364.81716403 134.11597431 369.39312744 122.03543091 C370.00604299 120.2258707 370.6115581 118.41376549 371.20562744 116.59793091 C371.59750244 115.42230591 371.98937744 114.24668091 372.39312744 113.03543091 C368.13745105 112.04104822 363.9237844 111.75877642 359.57354736 111.55471802 C358.80228516 111.51555771 358.03102295 111.4763974 357.23638916 111.43605042 C354.69895427 111.30809105 352.16129379 111.18540381 349.62359619 111.06277466 C347.8595266 110.97484826 346.09547343 110.8865919 344.33143616 110.79801941 C339.69725141 110.56622334 335.06285759 110.33890305 330.42840576 110.11251831 C325.6958086 109.88054416 320.96342317 109.64433198 316.23101807 109.40847778 C306.95192337 108.94665055 297.67260224 108.48955207 288.39312744 108.03543091 Z M150.39312744 171.03543091 C151.11685236 175.96142954 152.28581889 180.67517578 153.58062744 185.47293091 C154.03038859 187.15377545 154.47958083 188.8347723 154.92828369 190.51589966 C155.16563232 191.40454712 155.40298096 192.29319458 155.64752197 193.20877075 C156.43248319 196.18463224 157.19454761 199.16566472 157.95172119 202.14871216 C158.21251465 203.16973022 158.47330811 204.19074829 158.74200439 205.2427063 C159.24868322 207.2290977 159.75131051 209.21652819 160.24932861 211.20510864 C161.58446861 216.40918766 163.18516151 221.142101 165.39312744 226.03543091 C166.05312744 228.01543091 166.71312744 229.99543091 167.39312744 232.03543091 C184.55312744 232.03543091 201.71312744 232.03543091 219.39312744 232.03543091 C218.07195702 220.43483623 218.07195702 220.43483623 215.89312744 209.30496216 C215.25284131 206.39866339 214.82774697 203.47929911 214.39312744 200.53543091 C213.73379614 196.09009566 212.93076917 191.74626639 211.89703369 187.37527466 C211.04672419 183.42693828 210.46778351 179.4331797 209.85797119 175.44168091 C209.63724291 173.09282966 209.63724291 173.09282966 208.39312744 172.03543091 C206.08117219 171.87513789 203.76441989 171.78361929 201.44781494 171.71902466 C200.73366928 171.69819824 200.01952362 171.67737183 199.28373718 171.65591431 C196.94531215 171.58961765 194.60677164 171.53094134 192.26812744 171.47293091 C190.67201608 171.43009335 189.07590605 171.38720586 187.47979736 171.3442688 C175.11640413 171.02446695 162.76045517 170.9210363 150.39312744 171.03543091 Z M224.39312744 173.03543091 C225.56379885 186.91476222 225.56379885 186.91476222 228.67437744 200.45339966 C229.77379659 204.40294344 230.27775882 208.41143975 230.85406494 212.46511841 C231.48032048 216.61292686 232.2352505 220.72730934 233.01812744 224.84793091 C233.153479 225.56037964 233.28883057 226.27282837 233.42828369 227.00686646 C233.74820819 228.683378 234.07041057 230.35945463 234.39312744 232.03543091 C252.40312889 232.8418809 270.36561504 233.17497935 288.39312744 233.03543091 C287.53341263 220.43296866 286.57774975 207.93420346 284.43341064 195.47805786 C283.45795951 189.75127637 282.91117908 184.11478805 282.60406494 178.30886841 C282.64042966 176.06981467 282.64042966 176.06981467 281.39312744 175.03543091 C272.9206092 173.57131086 264.15588845 173.7487409 255.58062744 173.53543091 C252.82400075 173.46632957 250.06750651 173.39395 247.31109619 173.31668091 C246.64447968 173.29839233 245.97786316 173.28010376 245.29104614 173.26126099 C239.79393848 173.09098803 234.33634414 172.66607857 228.86309814 172.13894653 C226.38930101 171.83556345 226.38930101 171.83556345 224.39312744 173.03543091 Z M296.39312744 176.03543091 C298.53946782 195.58451314 298.53946782 195.58451314 301.39312744 215.03543091 C301.86293598 218.85224146 302.29338558 222.66621357 302.69195557 226.49050903 C302.79162865 230.06554857 302.79162865 230.06554857 304.39312744 233.03543091 C307.04712403 233.29663835 309.66829264 233.4719415 312.33062744 233.59793091 C313.20420898 233.6403894 314.07779053 233.6828479 314.97784424 233.72659302 C332.42956637 234.43585018 349.93115745 234.11410479 367.39312744 234.03543091 C368.27059876 228.71329068 368.22298004 225.27824469 366.64312744 220.09793091 C362.4528974 205.54821872 360.91007822 191.20493869 359.39312744 176.03543091 C338.60312744 176.03543091 317.81312744 176.03543091 296.39312744 176.03543091 Z M172.39312744 247.03543091 C172.86557863 249.71775884 173.33827046 252.400044 173.81109619 255.08230591 C174.00922913 256.20741577 174.00922913 256.20741577 174.21136475 257.35525513 C176.77438518 271.89084872 180.1778222 285.88836155 184.39312744 300.03543091 C184.64062744 300.87509399 184.88812744 301.71475708 185.14312744 302.5798645 C186.78111025 308.10485728 188.53528133 313.5804785 190.39312744 319.03543091 C194.87321853 318.77074028 199.35319035 318.50412941 203.83306885 318.23587036 C205.35159342 318.14519541 206.87014742 318.05501159 208.38873291 317.96536255 C217.40121032 317.43294227 226.40013027 316.84358244 235.39312744 316.03543091 C234.99114117 308.96329353 234.14691816 302.51644652 232.14312744 295.71511841 C231.18623486 292.29622096 230.58794545 288.86758069 229.98687744 285.37136841 C228.59770179 277.56639466 226.97582836 269.80307874 225.39312744 262.03543091 C225.16593018 260.91829712 225.16593018 260.91829712 224.93414307 259.77859497 C224.52959183 257.80068722 224.11786594 255.82425077 223.70562744 253.84793091 C223.35951416 252.18697388 223.35951416 252.18697388 223.00640869 250.49246216 C222.63449455 248.10519251 222.63449455 248.10519251 221.39312744 247.03543091 C219.85829774 246.94223641 218.31920662 246.91797291 216.78155518 246.92190552 C215.80061386 246.92198105 214.81967255 246.92205658 213.80900574 246.9221344 C212.74235184 246.92729568 211.67569794 246.93245697 210.57672119 246.93777466 C209.49052994 246.93918961 208.40433868 246.94060455 207.28523254 246.94206238 C203.80033669 246.94768043 200.31550402 246.96023598 196.83062744 246.97293091 C194.47450857 246.97794358 192.11838871 246.98250689 189.76226807 246.98660278 C183.9725328 246.99765572 178.18283463 247.0144114 172.39312744 247.03543091 Z M238.39312744 247.03543091 C238.30631775 254.83178552 238.30631775 254.83178552 239.76812744 261.91043091 C240.76372376 265.59321544 241.64777007 269.20903187 242.26812744 272.97293091 C243.70261911 281.26646258 245.80839542 289.42331184 247.80133057 297.59646606 C248.3150009 299.71344901 248.81806993 301.83244222 249.31500244 303.95339966 C249.56765869 305.01171997 249.82031494 306.07004028 250.08062744 307.16043091 C250.29074463 308.04988403 250.50086182 308.93933716 250.71734619 309.85574341 C251.36010452 312.29294086 251.36010452 312.29294086 253.39312744 315.03543091 C255.97140309 315.15248146 258.27438348 315.07377817 260.83062744 314.84793091 C261.5974585 314.79258179 262.36428955 314.73723267 263.15435791 314.6802063 C264.89673314 314.55250447 266.63857904 314.41745302 268.37994385 314.27664185 C271.78292519 314.00422688 275.1872821 313.75697496 278.59234619 313.51199341 C285.19378005 313.03485964 291.793753 312.54019268 298.39312744 312.03543091 C298.54705349 305.33187376 298.29650398 299.05276539 297.01812744 292.47293091 C295.66463035 284.99786371 294.73191852 277.5619989 294.01812744 270.00027466 C293.09129236 262.63772848 291.68272832 255.34316921 290.39312744 248.03543091 C273.23312744 247.70543091 256.07312744 247.37543091 238.39312744 247.03543091 Z M306.39312744 248.03543091 C306.2491954 254.9812424 306.35569414 261.54050684 307.76812744 268.34793091 C308.04939463 269.81357612 308.32799291 271.27973575 308.60406494 272.74636841 C308.7403833 273.46663208 308.87670166 274.18689575 309.01715088 274.9289856 C309.58266441 278.09733025 309.98978517 281.28037426 310.39312744 284.47293091 C311.48193123 293.03572677 312.93170876 301.52997417 314.39312744 310.03543091 C322.39409819 309.72376985 330.39395172 309.39021773 338.39312744 309.03543091 C339.67727539 308.97935669 339.67727539 308.97935669 340.98736572 308.92214966 C343.14409979 308.82393027 345.29977927 308.71379983 347.45562744 308.59793091 C349.23646729 308.507052 349.23646729 308.507052 351.05328369 308.41433716 C354.71872591 307.99849167 357.88085008 307.14056786 361.39312744 306.03543091 C362.09487368 302.10361477 362.58727078 298.23814874 362.85797119 294.25418091 C362.97326172 292.62996216 362.97326172 292.62996216 363.09088135 290.97293091 C363.16999756 289.83855591 363.24911377 288.70418091 363.33062744 287.53543091 C363.92991876 279.24848091 364.70869451 271.10703412 366.01812744 262.90261841 C366.58114243 258.59789965 366.53657193 254.3645409 366.39312744 250.03543091 C358.42460429 248.48597755 350.83169221 247.75538148 342.72125244 247.84011841 C341.67282166 247.8429483 340.62439087 247.8457782 339.54418945 247.84869385 C336.24371199 247.85975769 332.94352083 247.88483523 329.64312744 247.91043091 C327.3853189 247.92047858 325.12750604 247.92960127 322.86968994 247.93777466 C317.37740718 247.95965155 311.88528777 247.99298808 306.39312744 248.03543091 Z M380.39312744 256.03543091 C378.76259549 264.74727308 377.8501244 273.38325575 377.26812744 282.22293091 C377.18176025 283.42884888 377.09539307 284.63476685 377.00640869 285.87722778 C376.5657886 292.28020709 376.29662107 298.61775704 376.39312744 305.03543091 C393.17435452 305.28548231 409.77829271 304.42555378 426.39312744 302.03543091 C423.48062075 298.95845326 420.42264922 296.52628874 416.95562744 294.09793091 C413.07954836 291.3182726 409.63076535 288.55874275 406.39312744 285.03543091 C405.56812744 284.21043091 404.74312744 283.38543091 403.89312744 282.53543091 C403.06812744 281.71043091 402.24312744 280.88543091 401.39312744 280.03543091 C400.65578369 279.32644653 399.91843994 278.61746216 399.15875244 277.88699341 C395.76804281 274.39092275 392.70808157 270.69168892 389.64312744 266.91043091 C389.05402588 266.19500122 388.46492432 265.47957153 387.85797119 264.74246216 C387.297229 264.05281372 386.73648682 263.36316528 386.15875244 262.65261841 C385.65118408 262.02984009 385.14361572 261.40706177 384.6206665 260.76541138 C383.39312744 259.03543091 383.39312744 259.03543091 382.39312744 256.03543091 C381.73312744 256.03543091 381.07312744 256.03543091 380.39312744 256.03543091 Z M234.39312744 458.03543091 C234.39312744 458.69543091 234.39312744 459.35543091 234.39312744 460.03543091 C235.94000244 460.87074341 235.94000244 460.87074341 237.51812744 461.72293091 C248.37493576 467.5856074 255.53602003 478.45880717 259.73687744 489.81668091 C264.11846016 504.63060344 261.74665464 519.62723847 254.78375244 533.16433716 C251.52743166 538.65377701 247.89570586 542.8284522 242.89703369 546.79324341 C242.40074463 547.20316528 241.90445557 547.61308716 241.39312744 548.03543091 C241.39312744 548.36543091 241.39312744 548.69543091 241.39312744 549.03543091 C300.46312744 549.03543091 359.53312744 549.03543091 420.39312744 549.03543091 C416.98726859 546.30410346 416.98726859 546.30410346 413.54937744 543.61355591 C403.99307345 535.95048195 398.82328389 524.04168259 397.39312744 512.03543091 C396.40369243 499.39843633 399.05692594 487.98342465 405.39312744 477.03543091 C405.95000244 476.02480591 406.50687744 475.01418091 407.08062744 473.97293091 C412.11704868 467.57531475 417.98127296 462.43883348 425.39312744 459.03543091 C425.39312744 458.70543091 425.39312744 458.37543091 425.39312744 458.03543091 C362.36312744 458.03543091 299.33312744 458.03543091 234.39312744 458.03543091 Z M436.89312744 491.97293091 C432.0126796 497.95147951 431.68692285 503.54304152 432.39312744 511.03543091 C434.07363214 515.81160215 436.70061136 518.62695453 440.39312744 522.03543091 C441.05312744 522.69543091 441.71312744 523.35543091 442.39312744 524.03543091 C450.69647709 526.56865623 457.48399382 526.90656804 465.39312744 523.03543091 C469.71959372 520.2822251 472.69403032 516.89898405 474.39312744 512.03543091 C475.4639696 505.98563034 475.03748504 501.32386776 471.70562744 496.09793091 C466.91925863 489.85338927 462.02009065 486.83643117 454.39312744 485.03543091 C447.84135631 485.03543091 441.6798746 487.41019409 436.89312744 491.97293091 Z M190.39312744 492.03543091 C186.81692391 496.90304128 185.74526495 500.56066245 186.00250244 506.60574341 C186.89484799 512.15613272 190.10476592 516.48221708 194.39312744 520.03543091 C199.84525619 523.85192103 204.69465283 525.30509575 211.39312744 525.03543091 C218.17820797 523.033276 222.55188955 518.86645131 226.39312744 513.03543091 C227.89615778 507.01322212 227.5247064 501.8032328 225.39312744 496.03543091 C224.73312744 496.03543091 224.07312744 496.03543091 223.39312744 496.03543091 C223.33125244 495.45793091 223.26937744 494.88043091 223.20562744 494.28543091 C222.03362974 491.03989882 220.23651449 489.93102227 217.39312744 488.03543091 C208.46971693 483.88500741 197.5790854 485.0972646 190.39312744 492.03543091 Z " fill="#070707" transform="translate(141.60687255859375,347.9645690917969)"/>
<path d="M0 0 C5.18622087 2.81988435 8.86100536 6.05483163 12.55078125 10.67578125 C14.0794751 12.41117173 15.72067947 13.8366883 17.5 15.3125 C20.38521101 17.71264278 22.78268501 20.14706641 24.9375 23.25 C24.9375 23.91 24.9375 24.57 24.9375 25.25 C26.2575 25.91 27.5775 26.57 28.9375 27.25 C28.9375 27.91 28.9375 28.57 28.9375 29.25 C30.2575 29.91 31.5775 30.57 32.9375 31.25 C32.9375 31.91 32.9375 32.57 32.9375 33.25 C34.2575 33.91 35.5775 34.57 36.9375 35.25 C36.9375 35.91 36.9375 36.57 36.9375 37.25 C38.2575 37.91 39.5775 38.57 40.9375 39.25 C40.9375 39.91 40.9375 40.57 40.9375 41.25 C42.2575 41.91 43.5775 42.57 44.9375 43.25 C44.9375 43.91 44.9375 44.57 44.9375 45.25 C46.5875 45.91 48.2375 46.57 49.9375 47.25 C52.21249601 45.00417636 54.48173584 42.75262096 56.75 40.5 C57.39259766 39.86578125 58.03519531 39.2315625 58.69726562 38.578125 C59.31923828 37.959375 59.94121094 37.340625 60.58203125 36.703125 C61.15284424 36.13754883 61.72365723 35.57197266 62.31176758 34.98925781 C64.01671743 33.24105625 64.01671743 33.24105625 65.5222168 31.03417969 C65.98926025 30.44540039 66.45630371 29.85662109 66.9375 29.25 C67.5975 29.25 68.2575 29.25 68.9375 29.25 C69.5975 27.93 70.2575 26.61 70.9375 25.25 C71.5975 25.25 72.2575 25.25 72.9375 25.25 C73.5975 23.93 74.2575 22.61 74.9375 21.25 C75.5975 21.25 76.2575 21.25 76.9375 21.25 C77.5975 19.93 78.2575 18.61 78.9375 17.25 C79.5975 17.25 80.2575 17.25 80.9375 17.25 C81.5975 15.93 82.2575 14.61 82.9375 13.25 C83.5975 13.25 84.2575 13.25 84.9375 13.25 C85.5975 11.93 86.2575 10.61 86.9375 9.25 C87.5975 9.25 88.2575 9.25 88.9375 9.25 C89.5975 7.93 90.2575 6.61 90.9375 5.25 C91.5975 5.25 92.2575 5.25 92.9375 5.25 C93.2675 4.26 93.5975 3.27 93.9375 2.25 C97.75392648 -0.74862081 101.72781978 -2.11055242 106.5625 -1.75 C112.38935113 -0.72704163 115.74094699 1.71595768 119.375 6.375 C121.22985153 10.1406684 121.61520836 13.38897234 120.97265625 17.53125 C118.67178222 23.57430029 113.49022782 27.83050418 108.9375 32.25 C106.96887964 34.21005676 105.00699872 36.17670691 103.04541016 38.14379883 C101.75374223 39.43435352 100.45678145 40.71963928 99.15380859 41.9987793 C96.36958423 44.74111054 93.68371395 47.47889463 91.2109375 50.5078125 C89.36664437 52.73237225 87.68308476 54.47048 85.4375 56.25 C82.14071504 58.98182614 79.61913221 61.91607887 76.9375 65.25 C75.62206137 66.60099103 74.29574882 67.94205669 72.9375 69.25 C74.00737577 72.45962732 74.52139694 72.94905837 77.0625 74.9375 C79.76424947 77.16150109 82.06069758 79.44703872 84.3125 82.125 C87.53709185 85.9305994 91.10792259 89.1169871 94.875 92.375 C96.62733318 93.96803017 98.09768948 95.52471303 99.5625 97.375 C101.44369832 99.65224007 103.06867318 101.27831067 105.3125 103.125 C112.46413941 109.10551942 118.0605907 115.22124857 119.4375 124.6875 C118.67015422 130.15483871 116.50007889 134.21107854 112.140625 137.6796875 C107.77622013 140.21104232 104.1684365 140.58973966 99.2109375 140 C91.84613305 137.57037379 86.67631625 131.24723681 81.3828125 125.890625 C80.48126434 124.98624695 79.57971619 124.0818689 78.65084839 123.15008545 C76.27007905 120.76005 73.89373912 118.36578103 71.51947021 115.96929932 C69.08957429 113.51884125 66.65391395 111.07412725 64.21875 108.62890625 C59.45303337 103.84118389 54.6930782 99.04779172 49.9375 94.25 C43.86795937 97.18435947 39.15843103 101.69640398 34.8125 106.8125 C27.00733978 115.9992633 18.16053826 124.50181696 8.9375 132.25 C8.01710938 133.07951172 8.01710938 133.07951172 7.078125 133.92578125 C2.50053146 138.02409683 -0.51982738 140.20831684 -6.875 140.3125 C-12.11256263 139.49754718 -15.64577166 136.12389621 -19.0625 132.25 C-21.31627878 128.47182069 -21.43585771 125.65562097 -21.0625 121.25 C-20.30805119 118.64043391 -19.37288149 116.67663238 -18.0625 114.25 C-16.5775 113.755 -16.5775 113.755 -15.0625 113.25 C-13.85367904 111.24983534 -13.85367904 111.24983534 -13.0625 109.25 C-12.4025 109.25 -11.7425 109.25 -11.0625 109.25 C-10.80210937 108.6725 -10.54171875 108.095 -10.2734375 107.5 C-8.16842874 103.58875791 -5.04421146 100.51250043 -2.0625 97.25 C-1.32 96.425 -0.5775 95.6 0.1875 94.75 C1.9375 93.25 1.9375 93.25 4.9375 93.25 C5.5975 91.93 6.2575 90.61 6.9375 89.25 C7.5975 89.25 8.2575 89.25 8.9375 89.25 C9.5975 87.93 10.2575 86.61 10.9375 85.25 C11.5975 85.25 12.2575 85.25 12.9375 85.25 C13.5975 83.93 14.2575 82.61 14.9375 81.25 C15.5975 81.25 16.2575 81.25 16.9375 81.25 C17.5975 79.93 18.2575 78.61 18.9375 77.25 C19.5975 77.25 20.2575 77.25 20.9375 77.25 C21.5975 75.93 22.2575 74.61 22.9375 73.25 C23.5975 73.25 24.2575 73.25 24.9375 73.25 C24.4362676 69.00426673 23.29382655 67.146124 20.1875 64.25 C19.17429687 63.2909375 19.17429687 63.2909375 18.140625 62.3125 C17.41359375 61.631875 16.6865625 60.95125 15.9375 60.25 C15.13054688 59.43789063 14.32359375 58.62578125 13.4921875 57.7890625 C11.00004014 55.31215764 8.43033967 52.96808099 5.8125 50.625 C0.03164348 45.36804832 -5.5646658 39.92629158 -11.125 34.4375 C-11.95854004 33.62522949 -12.79208008 32.81295898 -13.65087891 31.97607422 C-23.45313153 22.23002947 -23.45313153 22.23002947 -23.5625 14.875 C-23.35367022 9.71516414 -21.58121436 6.0061216 -18.0625 2.25 C-12.16080553 -2.05205654 -6.70640691 -3.15890569 0 0 Z " fill="#070707" transform="translate(607.0625,454.75)"/>
<path d="M0 0 C6.21181593 5.6887757 11.04485866 11.5839041 15.09472656 18.96044922 C16.63580078 18.85603516 16.63580078 18.85603516 18.20800781 18.74951172 C27.73465195 18.3023921 34.11033872 19.22518471 42.09472656 24.96044922 C43.14660156 25.70294922 44.19847656 26.44544922 45.28222656 27.21044922 C45.88035156 27.78794922 46.47847656 28.36544922 47.09472656 28.96044922 C47.09472656 29.62044922 47.09472656 30.28044922 47.09472656 30.96044922 C47.75472656 30.96044922 48.41472656 30.96044922 49.09472656 30.96044922 C54.67798436 38.40997704 57.91593362 46.76586428 59.09472656 55.96044922 C59.91972656 56.04294922 60.74472656 56.12544922 61.59472656 56.21044922 C68.42332904 57.67372118 73.51604111 60.63927424 78.09472656 65.96044922 C78.54976562 66.46318359 79.00480469 66.96591797 79.47363281 67.48388672 C83.41471368 72.26707889 84.27254471 76.82572316 84.09472656 82.96044922 C83.19037546 87.97548717 81.71936874 91.33580704 78.09472656 94.96044922 C77.10472656 94.96044922 76.11472656 94.96044922 75.09472656 94.96044922 C75.09472656 95.62044922 75.09472656 96.28044922 75.09472656 96.96044922 C71.47120357 98.60779838 68.6206745 99.21853134 64.64941406 99.25097656 C63.58480957 99.26373627 62.52020508 99.27649597 61.42333984 99.28964233 C59.71380127 99.2929808 59.71380127 99.2929808 57.96972656 99.29638672 C56.20024658 99.30637192 56.20024658 99.30637192 54.39501953 99.31655884 C51.90366168 99.32667308 49.4122768 99.33137624 46.92089844 99.33105469 C43.10859714 99.33543329 39.29744854 99.37178316 35.48535156 99.40966797 C33.06348052 99.41553521 30.64160398 99.41950522 28.21972656 99.42138672 C26.51018799 99.44294327 26.51018799 99.44294327 24.76611328 99.4649353 C16.8998108 99.41946922 16.8998108 99.41946922 12.87207031 97.12304688 C11.09472656 94.96044922 11.09472656 94.96044922 10.53222656 91.89794922 C11.09472656 88.96044922 11.09472656 88.96044922 12.90722656 87.14794922 C17.48767166 84.66142188 21.68324432 84.84697247 26.75097656 84.89794922 C27.60848511 84.90173584 28.46599365 84.90552246 29.3494873 84.90942383 C33.01299972 84.92571275 36.67639986 84.95358872 40.33984375 84.98095703 C54.74598283 85.12461692 54.74598283 85.12461692 69.09472656 83.96044922 C68.72977618 77.28500095 68.72977618 77.28500095 65.09472656 71.96044922 C60.16077161 69.54614742 55.45942827 69.59352216 50.05566406 69.40185547 C46.75141674 68.90926979 46.07672357 68.5362909 44.09472656 65.96044922 C43.66235352 63.87573242 43.66235352 63.87573242 43.58300781 61.51123047 C43.54755859 60.66367187 43.51210938 59.81611328 43.47558594 58.94287109 C43.45302734 58.06179688 43.43046875 57.18072266 43.40722656 56.27294922 C43.37306641 55.38027344 43.33890625 54.48759766 43.30371094 53.56787109 C43.22127008 51.36552251 43.15211105 49.16356984 43.09472656 46.96044922 C42.43472656 46.96044922 41.77472656 46.96044922 41.09472656 46.96044922 C40.18061823 45.53850293 39.26807707 44.11552005 38.36425781 42.68701172 C35.23643575 38.43317371 30.92702883 35.0576684 26.09472656 32.96044922 C22.28500238 32.52752602 19.67701827 33.04512649 16.21972656 34.52294922 C11.79939238 36.33707481 8.73326726 35.9369841 4.09472656 34.96044922 C2.54025588 33.40597853 2.71580947 31.61057526 2.40722656 29.46044922 C0.79190774 21.31412913 -3.12309735 15.97079228 -9.78027344 11.08544922 C-17.19420761 6.28362079 -24.87309178 3.19164369 -33.84277344 4.56201172 C-35.20135263 4.88513771 -36.55564226 5.22678011 -37.90527344 5.58544922 C-38.60934326 5.76712646 -39.31341309 5.94880371 -40.03881836 6.13598633 C-45.31511797 7.59128424 -48.87839588 9.30816492 -52.90527344 12.96044922 C-53.411875 13.40775391 -53.91847656 13.85505859 -54.44042969 14.31591797 C-58.08323645 18.4055757 -59.89803473 24.58642017 -60.53027344 29.96044922 C-60.90527344 32.96044922 -60.90527344 32.96044922 -62.90527344 34.96044922 C-65.03417969 35.19091797 -65.03417969 35.19091797 -67.46777344 35.14794922 C-68.2734375 35.14150391 -69.07910156 35.13505859 -69.90917969 35.12841797 C-71.90527344 34.96044922 -71.90527344 34.96044922 -72.90527344 33.96044922 C-73.9394196 24.30058392 -73.70988128 17.26897637 -67.72949219 9.19482422 C-67.1275 8.45748047 -66.52550781 7.72013672 -65.90527344 6.96044922 C-65.37546875 6.20248047 -64.84566406 5.44451172 -64.29980469 4.66357422 C-63.83960938 4.10154297 -63.37941406 3.53951172 -62.90527344 2.96044922 C-62.24527344 2.96044922 -61.58527344 2.96044922 -60.90527344 2.96044922 C-60.70675781 2.37521484 -60.50824219 1.78998047 -60.30371094 1.18701172 C-56.83348347 -4.33821078 -47.99402513 -7.09222745 -41.87402344 -8.96923828 C-27.07617285 -11.93693909 -11.57235906 -10.14907606 0 0 Z " fill="#060606" transform="translate(804.9052734375,313.03955078125)"/>
<path d="M0 0 C65.01 0 130.02 0 197 0 C196.67 0.99 196.34 1.98 196 3 C132.64 2.67 69.28 2.34 4 2 C4 2.66 4 3.32 4 4 C4.56332031 4.09796875 5.12664062 4.1959375 5.70703125 4.296875 C15.58175567 7.32489952 22.02754694 17.53668194 27 26 C31.01001248 34.17510831 32.15499702 41.29759857 32.0625 50.3125 C32.05798828 51.14845703 32.05347656 51.98441406 32.04882812 52.84570312 C32.03710548 54.89716649 32.01917203 56.94859273 32 59 C30.515 59.495 30.515 59.495 29 60 C29.03480469 59.15179687 29.06960938 58.30359375 29.10546875 57.4296875 C29.48375331 41.03735642 26.22201344 26.35688 14.75 14.0625 C10.06205484 9.67412991 4.76899731 6.749709 -1 4 C-1 2 -1 2 0 1 C0 0.67 0 0.34 0 0 Z " fill="#000000" transform="translate(372,804)"/>
<path d="M0 0 C2.85919086 2.32309258 2.97108775 3.77283231 3.4375 7.4375 C2.90832819 11.74647049 2.43069374 13.30445492 -1 16 C-4.46784043 16.70854547 -7.53279348 16.71417543 -11 16 C-14.13922618 13.45872167 -14.84128733 11.95227601 -15.5 8 C-14.88087611 4.28525663 -13.6428646 2.6428646 -11 0 C-7.08124135 -1.30625288 -3.9735098 -1.05132447 0 0 Z " fill="#0B0B0B" transform="translate(163,596)"/>
<path d="M0 0 C2.1484375 1.21484375 2.1484375 1.21484375 4 3 C4.53125 5.59375 4.53125 5.59375 4.5 8.5 C4.5103125 9.4590625 4.520625 10.418125 4.53125 11.40625 C4 14 4 14 2.234375 15.83203125 C-1.30267918 17.68094593 -4.05626149 17.19718693 -8 17 C-8 16.34 -8 15.68 -8 15 C-9.32 14.67 -10.64 14.34 -12 14 C-12.3470476 10.27245175 -12.51267205 6.71687233 -12 3 C-8.15056889 -1.03273736 -5.26212461 -1.7159102 0 0 Z " fill="#060606" transform="translate(772,809)"/>
<path d="M0 0 C0.680625 0.00644531 1.36125 0.01289063 2.0625 0.01953125 C4 0.1875 4 0.1875 7 1.1875 C8.85898753 4.90547506 8.5681869 9.13835199 8 13.1875 C5.31281187 16.60755762 3.72186921 17.08618502 -0.5625 17.6875 C-4 17.1875 -4 17.1875 -6.375 15.5625 C-8.37108249 12.64514866 -8.8560483 10.71431669 -9 7.1875 C-7.61412856 2.10597137 -5.35554025 -0.11157376 0 0 Z " fill="#060606" transform="translate(180,254.8125)"/>
<path d="M0 0 C20.88078594 0.15103643 40.09229719 6.03698104 55 21 C60.98858314 28.00989189 65.3125 39.69853715 65.3125 48.9375 C65.209375 49.948125 65.10625 50.95875 65 52 C64.34 51.67 63.68 51.34 63 51 C62.17802455 48.19158388 61.44530381 45.40215127 60.75 42.5625 C58.85067523 35.27015483 56.560045 29.09949753 52 23 C51.12601563 21.76056641 51.12601563 21.76056641 50.234375 20.49609375 C47.60414043 17.55777226 44.72634833 15.75057791 41.3125 13.875 C40.73822266 13.54113281 40.16394531 13.20726562 39.57226562 12.86328125 C30.02057046 7.4924273 19.98448408 6.03297957 9.26757812 4.45117188 C8.23181641 4.29068359 7.19605469 4.13019531 6.12890625 3.96484375 C5.19119385 3.8268335 4.25348145 3.68882324 3.28735352 3.54663086 C1 3 1 3 -1 1 C-0.67 0.67 -0.34 0.34 0 0 Z " fill="#000000" transform="translate(199,357)"/>
<path d="M0 0 C1.75734451 4.97361654 3.32584613 9.7415998 4 15 C4.825 15.0825 5.65 15.165 6.5 15.25 C13.32860248 16.71327196 18.42131455 19.67882502 23 25 C23.68255859 25.75410156 23.68255859 25.75410156 24.37890625 26.5234375 C28.31998712 31.30662967 29.17781815 35.86527394 29 42 C28.09564889 47.01503795 26.62464218 50.37535782 23 54 C22.01 54 21.02 54 20 54 C20 54.66 20 55.32 20 56 C18.02 56.495 18.02 56.495 16 57 C16 56.01 16 55.02 16 54 C17.97946592 52.63636792 19.9819245 51.30581356 22 50 C25.75080682 46.00266127 25.60610637 42.40560556 25.49609375 37.125 C24.71346657 32.19506502 22.33903078 28.64179263 19 25 C18.34 24.67 17.68 24.34 17 24 C17 23.34 17 22.68 17 22 C16.41992188 21.80664062 15.83984375 21.61328125 15.2421875 21.4140625 C12.828125 20.609375 10.4140625 19.8046875 8 19 C6.96875 18.78085937 5.9375 18.56171875 4.875 18.3359375 C2 17 2 17 0.3203125 13.8125 C-0.07414063 12.554375 -0.46859375 11.29625 -0.875 10 C-1.19210937 9.03707031 -1.19210937 9.03707031 -1.515625 8.0546875 C-3 3.44734172 -3 3.44734172 -3 1 C-1 0 -1 0 0 0 Z " fill="#010000" transform="translate(860,354)"/>
<path d="M0 0 C2.67723915 19.40998384 0.95985951 34.57289047 -10.7734375 50.37109375 C-14.68658299 54.9913515 -19.20153677 59.06717892 -25 61 C-23.49099708 57.26940944 -21.31627489 55.3630832 -18.25 52.8125 C-9.18554243 44.80599785 -3.02321615 34.27859377 -2 22 C-1.75230859 14.92953621 -2.14737727 8.01891213 -3 1 C-1 0 -1 0 0 0 Z " fill="#010100" transform="translate(648,837)"/>
<path d="M0 0 C1.16082596 0.04011703 2.32165192 0.08023407 3.51765442 0.12156677 C4.76052719 0.17047562 6.00339996 0.21938446 7.28393555 0.26977539 C9.20437935 0.33848595 9.20437935 0.33848595 11.16362 0.40858459 C14.55531104 0.53000022 17.94670008 0.65844922 21.33807373 0.78839111 C24.80359623 0.91991867 28.2693591 1.04475625 31.73510742 1.17016602 C38.52636092 1.41726826 45.31733991 1.6710569 52.1081543 1.92993164 C51.7781543 2.91993164 51.4481543 3.90993164 51.1081543 4.92993164 C37.53456834 5.08180393 24.0382019 4.61111278 10.4831543 3.92993164 C8.49359022 3.83318065 6.50400691 3.73682438 4.5144043 3.64086914 C-0.28791204 3.40842075 -5.08993957 3.1706993 -9.8918457 2.92993164 C-10.2218457 2.26993164 -10.5518457 1.60993164 -10.8918457 0.92993164 C-7.15757728 0.04639508 -3.82987646 -0.14184728 0 0 Z " fill="#000000" transform="translate(333.891845703125,434.070068359375)"/>
<path d="M0 0 C2.39112127 2.39112127 2.69656253 4.42473915 3.44189453 7.65039062 C4.02583397 10.10876035 4.69984929 12.52606998 5.40234375 14.953125 C5.77613159 16.24500732 5.77613159 16.24500732 6.1574707 17.56298828 C6.41488037 18.44970215 6.67229004 19.33641602 6.9375 20.25 C8.90746152 27.08007575 10.80361373 33.90602107 12.45703125 40.8203125 C12.89249444 42.5684309 13.43030305 44.29090916 14 46 C14.12781786 48.67394964 14.04391871 51.32095857 14 54 C12 53 12 53 11.25923157 51.09112549 C11.02971298 50.25571228 10.8001944 49.42029907 10.5637207 48.55957031 C10.3003743 47.61478821 10.03702789 46.6700061 9.76570129 45.69659424 C9.48852768 44.66749939 9.21135406 43.63840454 8.92578125 42.578125 C8.63769089 41.52598816 8.34960052 40.47385132 8.05278015 39.38983154 C7.44443791 37.15813099 6.84029622 34.92528188 6.23999023 32.69140625 C5.31914739 29.27466482 4.37824242 25.86389265 3.43554688 22.453125 C2.84772736 20.28679197 2.26109967 18.12013513 1.67578125 15.953125 C1.39253494 14.93212708 1.10928864 13.91112915 0.81745911 12.85919189 C0.56356918 11.90180115 0.30967926 10.9444104 0.0480957 9.95800781 C-0.1790361 9.11941223 -0.40616791 8.28081665 -0.6401825 7.41680908 C-1.04653108 4.68746174 -0.68579322 2.65597993 0 0 Z " fill="#010101" transform="translate(286,607)"/>
<path d="M0 0 C2.85919086 2.32309258 2.97108775 3.77283231 3.4375 7.4375 C2.90832819 11.74647049 2.43069374 13.30445492 -1 16 C-4.46784043 16.70854547 -7.53279348 16.71417543 -11 16 C-14.13922618 13.45872167 -14.84128733 11.95227601 -15.5 8 C-14.88087611 4.28525663 -13.6428646 2.6428646 -11 0 C-7.08124135 -1.30625288 -3.9735098 -1.05132447 0 0 Z M-12 4 C-12.37331109 7.42201828 -12.63763183 9.90185629 -10.875 12.9375 C-8.11019567 14.50422245 -6.11811483 14.38976435 -3 14 C-0.61081273 12.43467041 -0.08958561 11.24955992 0.875 8.5625 C1.19017475 5.973057 1.19017475 5.973057 0 3.6875 C-2.0147366 1.66813497 -2.0147366 1.66813497 -5.5 1.625 C-9.10936483 1.73859137 -9.10936483 1.73859137 -12 4 Z " fill="#010101" transform="translate(163,596)"/>
<path d="M0 0 C1 2 1 2 0.22265625 4.40625 C-0.16019531 5.4271875 -0.54304687 6.448125 -0.9375 7.5 C-4.45636457 18.40848016 -3.55978734 29.77713985 -2 41 C-2.99 40.67 -3.98 40.34 -5 40 C-7.91311962 28.24348154 -8.15046601 16.53767603 -4 5 C-1.890625 2.12109375 -1.890625 2.12109375 0 0 Z " fill="#010101" transform="translate(545,830)"/>
<path d="M0 0 C0.66 0 1.32 0 2 0 C3.4548985 5.19275146 4.89700773 10.38882144 6.32739258 15.58837891 C6.81575431 17.35660197 7.30759366 19.12386839 7.80297852 20.89013672 C8.51455031 23.42952733 9.21353355 25.97209867 9.91015625 28.515625 C10.13405533 29.30430969 10.35795441 30.09299438 10.58863831 30.90557861 C11.6093204 34.67913848 12.16837179 37.26450192 11 41 C10.34 40.67 9.68 40.34 9 40 C8.359375 38.015625 8.359375 38.015625 7.75 35.25 C6.77412013 31.04815457 5.70122964 26.91306896 4.47265625 22.77734375 C4.2003418 21.85727539 3.92802734 20.93720703 3.64746094 19.98925781 C3.09911945 18.14926747 2.54398744 16.3112845 1.98144531 14.47558594 C0.49903494 9.46006634 -0.32113778 5.23097766 0 0 Z " fill="#000000" transform="translate(288,567)"/>
<path d="M0 0 C0.99 0 1.98 0 3 0 C3.23074219 0.87398437 3.46148437 1.74796875 3.69921875 2.6484375 C4.02535156 3.87820313 4.35148437 5.10796875 4.6875 6.375 C4.86249023 7.03822266 5.03748047 7.70144531 5.21777344 8.38476562 C6.22798439 12.18936464 7.27579795 15.97903059 8.37890625 19.7578125 C8.72078979 20.94238037 8.72078979 20.94238037 9.06958008 22.15087891 C9.51365285 23.68402144 9.96499186 25.21508331 10.42456055 26.74365234 C11.74326523 31.32626751 12.22590487 35.2308971 12 40 C11.34 39.67 10.68 39.34 10 39 C9.10961031 36.29522772 8.33580868 33.63006731 7.6171875 30.87890625 C7.28849167 29.6562632 7.28849167 29.6562632 6.95315552 28.40892029 C6.49056511 26.68238898 6.0318408 24.95481795 5.57666016 23.22631836 C4.87830726 20.57505587 4.16876486 17.92699518 3.45703125 15.27929688 C3.00975856 13.60434227 2.56312257 11.92921748 2.1171875 10.25390625 C1.90472382 9.45803604 1.69226013 8.66216583 1.47335815 7.84217834 C0 2.23481722 0 2.23481722 0 0 Z " fill="#010101" transform="translate(260,517)"/>
<path d="M0 0 C11.55 0 23.1 0 35 0 C35 0.66 35 1.32 35 2 C30.99679847 2.95377184 27.27788253 3.1157616 23.16796875 3.09765625 C21.87568359 3.09443359 20.58339844 3.09121094 19.25195312 3.08789062 C17.89713474 3.07953665 16.54231703 3.07107172 15.1875 3.0625 C13.81315265 3.05748 12.43880355 3.05291797 11.06445312 3.04882812 C7.70959076 3.03705668 4.35481779 3.02061283 1 3 C0.67 2.01 0.34 1.02 0 0 Z " fill="#000000" transform="translate(323,777)"/>
<path d="M0 0 C-0.33 0.99 -0.66 1.98 -1 3 C-3.95703125 4.0625 -3.95703125 4.0625 -7.8125 5 C-8.82703247 5.25100464 -8.82703247 5.25100464 -9.86206055 5.50708008 C-11.24668694 5.84896113 -12.63252945 6.18595364 -14.01953125 6.51806641 C-15.79021177 6.94894946 -17.55212777 7.41548703 -19.3125 7.88671875 C-25.53645197 9.5480601 -31.5697892 10.58744223 -38 11 C-38.33 10.34 -38.66 9.68 -39 9 C-37.97519531 8.77957031 -37.97519531 8.77957031 -36.9296875 8.5546875 C-28.37321915 6.65081858 -19.94767241 4.37959635 -11.51708984 1.98193359 C-10.60266113 1.72621582 -9.68823242 1.47049805 -8.74609375 1.20703125 C-7.92810303 0.9747583 -7.1101123 0.74248535 -6.26733398 0.50317383 C-4 0 -4 0 0 0 Z " fill="#000000" transform="translate(712,664)"/>
<path d="M0 0 C0.99 0.495 0.99 0.495 2 1 C2.5625 2.69555664 2.5625 2.69555664 3 4.91015625 C3.16419434 5.72806641 3.32838867 6.54597656 3.49755859 7.38867188 C3.66336426 8.27103516 3.82916992 9.15339844 4 10.0625 C4.17225098 10.95904297 4.34450195 11.85558594 4.52197266 12.77929688 C8.97710139 36.5231558 8.97710139 36.5231558 6 41 C4.12232913 32.33075363 2.57636233 23.65475262 1.3125 14.875 C1.11563599 13.52498901 1.11563599 13.52498901 0.91479492 12.14770508 C0.34264436 8.07204367 -0.17984152 4.12779102 0 0 Z " fill="#010100" transform="translate(446,604)"/>
<path d="M0 0 C0.66 0 1.32 0 2 0 C1.21971893 3.79799462 -0.30313898 7.18867222 -1.8125 10.75 C-5.07837945 18.64270624 -7.14118165 26.67905432 -9 35 C-9.66 35 -10.32 35 -11 35 C-10.34317963 22.95829325 -6.73928806 10.06591536 0 0 Z " fill="#000101" transform="translate(534,464)"/>
<path d="M0 0 C5.77629409 8.66444113 10.5452789 20.54141471 11 31 C10.34 31.66 9.68 32.32 9 33 C7.85031056 29.5674344 6.71585111 26.13042272 5.59765625 22.6875 C5.08602065 21.12497277 4.57430025 19.56247331 4.0625 18 C3.81048828 17.21882813 3.55847656 16.43765625 3.29882812 15.6328125 C1.8417223 11.20559583 0.1248643 7.16092831 -2 3 C-2 2.34 -2 1.68 -2 1 C-1.34 0.67 -0.68 0.34 0 0 Z " fill="#000000" transform="translate(794,452)"/>
<path d="M0 0 C0.66 0 1.32 0 2 0 C2.86114943 3.89463992 3.71541795 7.79072042 4.56347656 11.68823242 C4.85262686 13.01253431 5.14361885 14.33643552 5.43652344 15.65991211 C5.85841904 17.56776994 6.27303782 19.4772323 6.6875 21.38671875 C7.06455078 23.10701294 7.06455078 23.10701294 7.44921875 24.86206055 C7.94075081 27.66244242 8.11135406 30.16743108 8 33 C7.01 33.495 7.01 33.495 6 34 C3.79312922 25.55818362 1.70181254 17.1886118 0.39453125 8.55078125 C0.11863505 6.76701673 -0.22304322 4.99275387 -0.61328125 3.23046875 C-0.74089844 2.49441406 -0.86851562 1.75835938 -1 1 C-0.67 0.67 -0.34 0.34 0 0 Z " fill="#000000" transform="translate(366,604)"/>
<path d="M0 0 C0.33 0.99 0.66 1.98 1 3 C-9.02437685 3.72904559 -18.94389808 4.14141393 -29 4 C-20.73841374 -1.50772417 -9.62350979 -0.15356665 0 0 Z " fill="#010101" transform="translate(377,664)"/>
<path d="M0 0 C0.66 0.33 1.32 0.66 2 1 C2.7437537 3.42096347 3.36973894 5.78706832 3.9375 8.25 C4.10862305 8.96349609 4.27974609 9.67699219 4.45605469 10.41210938 C4.97967974 12.60606909 5.49118741 14.80256254 6 17 C6.30850583 18.31772892 6.61709477 19.63543839 6.92578125 20.953125 C7.62609944 23.96681653 8.31788217 26.98214535 9 30 C8.01 30 7.02 30 6 30 C5.01071875 26.66958536 4.03545709 23.33521674 3.0625 20 C2.78470703 19.06542969 2.50691406 18.13085938 2.22070312 17.16796875 C0.65390989 11.76913904 -0.59050029 6.61599601 -1 1 C-0.67 0.67 -0.34 0.34 0 0 Z " fill="#000100" transform="translate(233,411)"/>
<path d="M0 0 C0.33 0.66 0.66 1.32 1 2 C-1.96858365 8.29339734 -5.32069989 12.20313251 -11.6875 15.3125 C-16.4634897 16.30374315 -21.1408567 16.15563092 -26 16 C-25.67 15.01 -25.34 14.02 -25 13 C-23.845 13.061875 -22.69 13.12375 -21.5 13.1875 C-15.45061208 13.16608624 -10.83571276 11.58538829 -6.25 7.625 C-4.1070278 5.12486576 -2.0113557 2.60731295 0 0 Z " fill="#010101" transform="translate(616,860)"/>
<path d="M0 0 C0.99 0 1.98 0 3 0 C3.12117188 0.845625 3.24234375 1.69125 3.3671875 2.5625 C4.45595795 10.08871504 4.45595795 10.08871504 6.125 17.5 C6.88181045 20.52724181 7.19320035 22.90879445 7 26 C6.01 26 5.02 26 4 26 C3.32570033 22.60563644 2.6619172 19.20929807 2 15.8125 C1.80921875 14.85279297 1.6184375 13.89308594 1.421875 12.90429688 C1.24140625 11.97294922 1.0609375 11.04160156 0.875 10.08203125 C0.70742188 9.22843018 0.53984375 8.3748291 0.3671875 7.49536133 C-0.00595229 4.95954897 -0.06412996 2.55918603 0 0 Z " fill="#010101" transform="translate(365,530)"/>
<path d="M0 0 C0.33 0 0.66 0 1 0 C1.18175781 1.03898438 1.36351562 2.07796875 1.55078125 3.1484375 C2.94154978 10.9240555 4.4579687 18.50010625 7 26 C6.01 26 5.02 26 4 26 C-2.2745098 9.19327731 -2.2745098 9.19327731 -1 1 C-0.67 0.67 -0.34 0.34 0 0 Z " fill="#010101" transform="translate(293,853)"/>
<path d="M0 0 C0.33 0 0.66 0 1 0 C1.49603237 5.95238849 0.43488751 10.06297509 -3 15 C-6.22915288 18.39398203 -9.66263096 21.16631553 -14 23 C-16.25 22.625 -16.25 22.625 -18 22 C-17.29875 21.5875 -16.5975 21.175 -15.875 20.75 C-14.92625 20.1725 -13.9775 19.595 -13 19 C-11.989375 18.401875 -10.97875 17.80375 -9.9375 17.1875 C-5.86926827 14.15796573 -3.53617289 11.0553294 -2.25 6.125 C-2.1675 5.42375 -2.085 4.7225 -2 4 C-1.34 4 -0.68 4 0 4 C0 2.68 0 1.36 0 0 Z " fill="#000000" transform="translate(370,852)"/>
<path d="M0 0 C-2.35557677 2.35557677 -3.10296131 2.33114076 -6.32421875 2.6328125 C-7.18853516 2.71660156 -8.05285156 2.80039062 -8.94335938 2.88671875 C-9.84892578 2.96535156 -10.75449219 3.04398438 -11.6875 3.125 C-12.57373047 3.21136719 -13.45996094 3.29773438 -14.37304688 3.38671875 C-19.27084675 3.84350838 -24.0818742 4.09419119 -29 4 C-29 3.34 -29 2.68 -29 2 C-20.99012358 -2.00493821 -8.76622953 -0.08510902 0 0 Z " fill="#000000" transform="translate(532,691)"/>
<path d="M0 0 C-2.73055792 2.73055792 -4.76371037 2.94529171 -8.56542969 3.11352539 C-9.50805664 3.10828857 -10.45068359 3.10305176 -11.421875 3.09765625 C-12.44667969 3.09443359 -13.47148438 3.09121094 -14.52734375 3.08789062 C-15.59082031 3.07951172 -16.65429688 3.07113281 -17.75 3.0625 C-18.82894531 3.05798828 -19.90789063 3.05347656 -21.01953125 3.04882812 C-23.67974383 3.03705727 -26.33984365 3.02061399 -29 3 C-28.67 2.34 -28.34 1.68 -28 1 C-25.53149414 0.57348633 -25.53149414 0.57348633 -22.28515625 0.33203125 C-21.12435547 0.24373047 -19.96355469 0.15542969 -18.76757812 0.06445312 C-17.54490234 -0.01869141 -16.32222656 -0.10183594 -15.0625 -0.1875 C-13.84369141 -0.28224609 -12.62488281 -0.37699219 -11.36914062 -0.47460938 C-2.27126211 -1.13563105 -2.27126211 -1.13563105 0 0 Z " fill="#000000" transform="translate(562,689)"/>
<path d="M0 0 C0.66 0.33 1.32 0.66 2 1 C2.7222991 7.62107512 1.30208361 10.8868756 -2.4921875 16.3125 C-2.98976563 16.869375 -3.48734375 17.42625 -4 18 C-4.66 18 -5.32 18 -6 18 C-6.33 18.99 -6.66 19.98 -7 21 C-9.31 21.33 -11.62 21.66 -14 22 C-11.92608668 19.77246347 -10.24012464 18.12006232 -7.5 16.75 C-3.4331664 13.90321648 -1.61197711 9.71309852 -0.53125 4.921875 C-0.29230902 3.28911167 -0.13703785 1.64445417 0 0 Z " fill="#000000" transform="translate(662,782)"/>
<path d="M0 0 C0.66 0.99 1.32 1.98 2 3 C1.01 3.495 1.01 3.495 0 4 C-2.24395941 8.42017666 -4.05171907 13.05936073 -4.625 18 C-5 21 -5 21 -7 23 C-10.125 23.125 -10.125 23.125 -13 23 C-10 21 -10 21 -8 21 C-7.91363281 20.39414062 -7.82726562 19.78828125 -7.73828125 19.1640625 C-6.65235669 12.68836556 -4.82008713 4.82008713 0 0 Z " fill="#000000" transform="translate(749,325)"/>
<path d="M0 0 C0.66 0 1.32 0 2 0 C2.87214608 3.05766794 3.71945858 6.12169156 4.5625 9.1875 C4.80935547 10.05181641 5.05621094 10.91613281 5.31054688 11.80664062 C7.47053761 19.74688824 7.47053761 19.74688824 6 24 C3.19365568 21.19365568 2.81571443 17.93744223 1.9375 14.1875 C1.76412109 13.47529297 1.59074219 12.76308594 1.41210938 12.02929688 C0.92757355 10.02246459 0.46031592 8.0125075 0 6 C-0.22558594 5.02675781 -0.45117188 4.05351562 -0.68359375 3.05078125 C-0.78800781 2.37402344 -0.89242187 1.69726562 -1 1 C-0.67 0.67 -0.34 0.34 0 0 Z " fill="#000000" transform="translate(245,406)"/>
<path d="M0 0 C2.14576637 -0.02685938 4.29162645 -0.04633088 6.4375 -0.0625 C7.63246094 -0.07410156 8.82742188 -0.08570313 10.05859375 -0.09765625 C13 0 13 0 14 1 C14.07258946 3.18639453 14.08373783 5.37500389 14.0625 7.5625 C14.05347656 8.76003906 14.04445313 9.95757813 14.03515625 11.19140625 C14.02355469 12.11824219 14.01195312 13.04507813 14 14 C13.01 14 12.02 14 11 14 C11.33 10.37 11.66 6.74 12 3 C8.04 2.67 4.08 2.34 0 2 C0 1.34 0 0.68 0 0 Z " fill="#000000" transform="translate(496,595)"/>
<path d="M0 0 C0.99 0.33 1.98 0.66 3 1 C3.99 8.59 4.98 16.18 6 24 C5.34 24.33 4.68 24.66 4 25 C1.80982078 16.8650486 -0.2166784 8.46593478 0 0 Z " fill="#000000" transform="translate(356,473)"/>
<path d="M0 0 C3.59346752 6.63409388 6.50645911 14.41357151 7 22 C6.34 22.66 5.68 23.32 5 24 C-2.18648583 6.20489223 -2.18648583 6.20489223 0 0 Z " fill="#010101" transform="translate(247,463)"/>
<path d="M0 0 C2.54173977 -0.02716824 5.08318415 -0.04691969 7.625 -0.0625 C8.33785156 -0.07087891 9.05070312 -0.07925781 9.78515625 -0.08789062 C13.97344438 -0.10710296 17.8728462 0.1732673 22 1 C21.67 1.66 21.34 2.32 21 3 C14.4 3 7.8 3 1 3 C0.67 2.01 0.34 1.02 0 0 Z " fill="#010101" transform="translate(438,508)"/>
<path d="M0 0 C2.20826378 -0.02722517 4.41662638 -0.04649729 6.625 -0.0625 C7.85476563 -0.07410156 9.08453125 -0.08570313 10.3515625 -0.09765625 C13.67723791 -0.00863924 16.74047588 0.36313913 20 1 C19.67 1.66 19.34 2.32 19 3 C12.4 3 5.8 3 -1 3 C-0.67 2.01 -0.34 1.02 0 0 Z " fill="#010101" transform="translate(484,440)"/>
<path d="M0 0 C0.99 0.33 1.98 0.66 3 1 C3.73950195 2.73413086 3.73950195 2.73413086 4.23828125 4.96484375 C4.41810547 5.76470703 4.59792969 6.56457031 4.78320312 7.38867188 C5.04520508 8.6503418 5.04520508 8.6503418 5.3125 9.9375 C5.50650391 10.77474609 5.70050781 11.61199219 5.90039062 12.47460938 C6.90693384 17.12566221 6.90693384 17.12566221 7 19 C6.34 19.66 5.68 20.32 5 21 C3.46005026 17.36437952 2.33347451 13.76655724 1.375 9.9375 C1.11460937 8.91527344 0.85421875 7.89304687 0.5859375 6.83984375 C0 4 0 4 0 0 Z " fill="#010101" transform="translate(276,463)"/>
<path d="M0 0 C0.66 0 1.32 0 2 0 C2.33923576 2.35344806 2.67150534 4.7075484 3 7.0625 C3.09539062 7.71927734 3.19078125 8.37605469 3.2890625 9.05273438 C3.88887674 13.40138763 4.09127093 17.61329071 4 22 C1 20 1 20 0.45996094 18.04467773 C0.38551758 17.26552002 0.31107422 16.4863623 0.234375 15.68359375 C0.10675781 14.41418945 0.10675781 14.41418945 -0.0234375 13.11914062 C-0.13558594 11.79172852 -0.13558594 11.79172852 -0.25 10.4375 C-0.34023438 9.54869141 -0.43046875 8.65988281 -0.5234375 7.74414062 C-0.97588202 2.96063444 -0.97588202 2.96063444 -1 1 C-0.67 0.67 -0.34 0.34 0 0 Z " fill="#000000" transform="translate(435,611)"/>
<path d="M0 0 C0.66 0.33 1.32 0.66 2 1 C3.53647772 7.54425696 4.31241498 14.28307793 4 21 C3.34 21.33 2.68 21.66 2 22 C1.46775449 19.27261765 0.94892004 16.54379566 0.4375 13.8125 C0.21030273 12.65911133 0.21030273 12.65911133 -0.02148438 11.48242188 C-0.78168763 7.363181 -1.24229918 4.10534631 0 0 Z " fill="#000000" transform="translate(342,459)"/>
<path d="M0 0 C0.66 0 1.32 0 2 0 C2.70146314 2.22481229 3.38565954 4.45507368 4.0625 6.6875 C4.44535156 7.92886719 4.82820313 9.17023438 5.22265625 10.44921875 C5.96785758 13.8531786 5.99851065 15.71559076 5 19 C2.47029206 16.47029206 2.24639732 14.58928278 1.4375 11.125 C1.18871094 10.07570313 0.93992187 9.02640625 0.68359375 7.9453125 C0.45800781 6.97335937 0.23242188 6.00140625 0 5 C-0.21527344 4.23429687 -0.43054688 3.46859375 -0.65234375 2.6796875 C-0.76707031 2.12539063 -0.88179688 1.57109375 -1 1 C-0.67 0.67 -0.34 0.34 0 0 Z " fill="#000000" transform="translate(266,486)"/>
<path d="M0 0 C0.33 0 0.66 0 1 0 C1.21432579 6.64409958 0.51233701 12.53205867 -1 19 C-3.05829637 15.64339362 -3.15515468 13.38095533 -2.75 9.5 C-2.61851562 8.09234375 -2.61851562 8.09234375 -2.484375 6.65625 C-2.01516293 4.08315158 -1.29697085 2.25375263 0 0 Z " fill="#000000" transform="translate(508,611)"/>
<path d="M0 0 C0.66 0 1.32 0 2 0 C2.67364661 2.08108685 3.33866798 4.1649671 4 6.25 C4.37125 7.41015625 4.7425 8.5703125 5.125 9.765625 C6 13 6 13 6 17 C4 16 4 16 2.9296875 13.1640625 C2.58164062 11.99617187 2.23359375 10.82828125 1.875 9.625 C1.52179687 8.46226562 1.16859375 7.29953125 0.8046875 6.1015625 C0 3 0 3 0 0 Z " fill="#000000" transform="translate(523,550)"/>
<path d="M0 0 C0.66 0 1.32 0 2 0 C2.33895656 1.72807318 2.67091525 3.45751974 3 5.1875 C3.185625 6.15042969 3.37125 7.11335937 3.5625 8.10546875 C3.96877612 10.7934206 4.07933572 13.28771019 4 16 C3.34 16.33 2.68 16.66 2 17 C1.4678559 14.91952703 0.94968214 12.83547707 0.4375 10.75 C0.14746094 9.58984375 -0.14257812 8.4296875 -0.44140625 7.234375 C-0.95179964 4.27909017 -1.02996165 2.75565899 0 0 Z " fill="#000000" transform="translate(353,529)"/>
<path d="M0 0 C-1 2 -1 2 -3.58203125 2.88671875 C-4.64808594 3.15097656 -5.71414063 3.41523438 -6.8125 3.6875 C-8.39998047 4.09548828 -8.39998047 4.09548828 -10.01953125 4.51171875 C-12.83268294 4.97258895 -14.35965663 4.9525694 -17 4 C-11.01990022 0.17938069 -6.96504398 -0.11608407 0 0 Z " fill="#000000" transform="translate(776,315)"/>
<path d="M0 0 C4.29 0.66 8.58 1.32 13 2 C12.67 2.66 12.34 3.32 12 4 C7.48382401 4.07654536 3.40914783 4.10228696 -1 3 C-0.67 2.01 -0.34 1.02 0 0 Z " fill="#010101" transform="translate(630,653)"/>
<path d="M0 0 C5.445 1.485 5.445 1.485 11 3 C11 3.99 11 4.98 11 6 C9.56206608 5.68950274 8.1246682 5.3765224 6.6875 5.0625 C5.88699219 4.88847656 5.08648438 4.71445312 4.26171875 4.53515625 C2 4 2 4 -1 3 C-0.67 2.01 -0.34 1.02 0 0 Z " fill="#010101" transform="translate(696,373)"/>
<path d="M0 0 C2.86274764 2.86274764 2.9615008 6.10388111 3 10 C2.0625 12.5 2.0625 12.5 1 14 C-0.72488307 12.27511693 -0.41081633 9.91546061 -0.625 7.5625 C-0.76808594 6.07943359 -0.76808594 6.07943359 -0.9140625 4.56640625 C-1 2 -1 2 0 0 Z " fill="#000001" transform="translate(805,488)"/>
<path d="M0 0 C0.66 0 1.32 0 2 0 C2.55582752 1.95436127 3.09428713 3.91366982 3.625 5.875 C3.92664063 6.96554687 4.22828125 8.05609375 4.5390625 9.1796875 C4.69117188 10.11039063 4.84328125 11.04109375 5 12 C4.34 12.66 3.68 13.32 3 14 C0.79600832 9.44508386 0.41153737 4.97093824 0 0 Z " fill="#010100" transform="translate(382,620)"/>
<path d="M0 0 C0.66 0.33 1.32 0.66 2 1 C2 5.62 2 10.24 2 15 C-0.82345231 12.17654769 -0.67277783 9.92666609 -1 6 C-0.5625 2.5625 -0.5625 2.5625 0 0 Z " fill="#000000" transform="translate(502,526)"/>
<path d="M0 0 C0.99 0.495 0.99 0.495 2 1 C2.4140625 3.72265625 2.4140625 3.72265625 2.625 7.0625 C2.69976562 8.16722656 2.77453125 9.27195312 2.8515625 10.41015625 C2.90054687 11.26480469 2.94953125 12.11945313 3 13 C2.01 13.495 2.01 13.495 1 14 C-0.38226016 11.23547967 -0.09525387 8.9538637 -0.0625 5.875 C-0.05347656 4.77929688 -0.04445313 3.68359375 -0.03515625 2.5546875 C-0.02355469 1.71164062 -0.01195312 0.86859375 0 0 Z " fill="#000000" transform="translate(416,461)"/>
<path d="M0 0 C0.66 0 1.32 0 2 0 C2.36504603 1.58086048 2.71660506 3.16483907 3.0625 4.75 C3.25972656 5.63171875 3.45695312 6.5134375 3.66015625 7.421875 C3.99825872 9.98679028 3.81158635 11.57091639 3 14 C0.31907309 11.31907309 0.61329743 9.60832637 0.375 5.875 C0.30023438 4.77929688 0.22546875 3.68359375 0.1484375 2.5546875 C0.09945313 1.71164062 0.05046875 0.86859375 0 0 Z " fill="#000000" transform="translate(375,647)"/>
<path d="M0 0 C0.66 0 1.32 0 2 0 C3.47075246 4.41225737 4.36884358 7.48281619 3 12 C0.52075165 8.28112748 -0.08484002 5.36460914 -1 1 C-0.67 0.67 -0.34 0.34 0 0 Z " fill="#010101" transform="translate(257,563)"/>
<path d="M0 0 C0.66 0 1.32 0 2 0 C3.47075246 4.41225737 4.36884358 7.48281619 3 12 C0.50494038 9.50494038 0.64051624 8.32671112 0.375 4.875 C0.30023438 3.96492187 0.22546875 3.05484375 0.1484375 2.1171875 C0.09945313 1.41851563 0.05046875 0.71984375 0 0 Z " fill="#000100" transform="translate(308,641)"/>
<path d="M0 0 C0.33 0.99 0.66 1.98 1 3 C0.01 3.33 -0.98 3.66 -2 4 C-3.22520264 7.00847418 -3.22520264 7.00847418 -4 10 C-4.66 10 -5.32 10 -6 10 C-6.33 8.68 -6.66 7.36 -7 6 C-4.69 4.02 -2.38 2.04 0 0 Z " fill="#000101" transform="translate(311,740)"/>
<path d="M0 0 C0.66 0 1.32 0 2 0 C2.33 3.63 2.66 7.26 3 11 C2.01 11.495 2.01 11.495 1 12 C0.03929566 9.11788698 -0.10581883 7.30149956 -0.0625 4.3125 C-0.05347656 3.50425781 -0.04445313 2.69601562 -0.03515625 1.86328125 C-0.02355469 1.24839844 -0.01195312 0.63351562 0 0 Z " fill="#010101" transform="translate(431,482)"/>
<path d="M0 0 C0.66 0 1.32 0 2 0 C2.309375 0.94875 2.61875 1.8975 2.9375 2.875 C3.87394742 5.86080408 3.87394742 5.86080408 5 8 C4.01 9.485 4.01 9.485 3 11 C2.30300448 9.54618103 1.61766134 8.08677047 0.9375 6.625 C0.55464844 5.81289063 0.17179688 5.00078125 -0.22265625 4.1640625 C-0.47917969 3.44992187 -0.73570312 2.73578125 -1 2 C-0.67 1.34 -0.34 0.68 0 0 Z " fill="#000000" transform="translate(786,485)"/>
<path d="M0 0 C0.66 0 1.32 0 2 0 C4.42857143 7.42857143 4.42857143 7.42857143 3 11 C2.34 10.67 1.68 10.34 1 10 C0.5859375 7.71484375 0.5859375 7.71484375 0.375 4.9375 C0.30023438 4.01839844 0.22546875 3.09929688 0.1484375 2.15234375 C0.09945313 1.44207031 0.05046875 0.73179687 0 0 Z " fill="#000000" transform="translate(271,615)"/>
<path d="M0 0 C0.66 0 1.32 0 2 0 C4.42857143 7.42857143 4.42857143 7.42857143 3 11 C2.34 10.67 1.68 10.34 1 10 C0.5859375 7.71484375 0.5859375 7.71484375 0.375 4.9375 C0.30023438 4.01839844 0.22546875 3.09929688 0.1484375 2.15234375 C0.09945312 1.44207031 0.05046875 0.73179687 0 0 Z " fill="#000000" transform="translate(251,541)"/>
<path d="M0 0 C0.66 0.66 1.32 1.32 2 2 C1.01 4.31 0.02 6.62 -1 9 C-1.99 9 -2.98 9 -4 9 C-2.94124926 5.59687262 -1.99097846 2.98646769 0 0 Z " fill="#000000" transform="translate(797,577)"/>
<path d="M0 0 C0.99 0.33 1.98 0.66 3 1 C3 3.31 3 5.62 3 8 C2.01 8 1.02 8 0 8 C0 5.36 0 2.72 0 0 Z " fill="#000000" transform="translate(520,528)"/>
<path d="M0 0 C2.64 0.66 5.28 1.32 8 2 C8 2.66 8 3.32 8 4 C5.36 3.67 2.72 3.34 0 3 C0 2.01 0 1.02 0 0 Z " fill="#000000" transform="translate(809,345)"/>
<path d="M0 0 C-0.33 0.66 -0.66 1.32 -1 2 C-3.64 2 -6.28 2 -9 2 C-9.33 1.34 -9.66 0.68 -10 0 C-6.30458414 -0.95024979 -3.69541586 -0.95024979 0 0 Z " fill="#010101" transform="translate(683,370)"/>
<path d="M0 0 C1.65 0.33 3.3 0.66 5 1 C5 1.66 5 2.32 5 3 C2.69 3 0.38 3 -2 3 C-1.34 2.01 -0.68 1.02 0 0 Z " fill="#010101" transform="translate(629,369)"/>
</svg>
