<?xml version="1.0" standalone="no"?>
<!DOCTYPE svg PUBLIC "-//W3C//DTD SVG 20010904//EN"
 "http://www.w3.org/TR/2001/REC-SVG-20010904/DTD/svg10.dtd">
<svg version="1.0" xmlns="http://www.w3.org/2000/svg"
 width="1024.000000pt" height="1024.000000pt" viewBox="0 0 1024.000000 1024.000000"
 preserveAspectRatio="xMidYMid meet">

<g transform="translate(0.000000,1024.000000) scale(0.100000,-0.100000)"
fill="#000000" stroke="none">
<path d="M5535 7591 c-44 -15 -323 -133 -620 -261 -725 -312 -1378 -592 -2160
-925 -357 -152 -676 -290 -707 -307 -61 -32 -143 -109 -189 -177 -93 -140
-113 -336 -52 -511 27 -76 546 -1457 942 -2502 82 -219 164 -424 181 -457 98
-184 291 -301 497 -301 51 0 116 5 145 11 50 10 372 143 1523 624 259 108 776
323 1150 477 374 154 717 298 762 319 142 68 241 179 301 337 22 58 26 84 26
187 1 99 -3 133 -22 195 -13 41 -195 532 -404 1090 -209 558 -452 1209 -540
1445 -88 237 -174 457 -191 490 -17 33 -63 92 -102 131 -150 152 -351 202
-540 135z"/>
<path d="M7722 7575 c-30 -14 -78 -50 -110 -82 -68 -70 -783 -1116 -796 -1165
-7 -29 17 -100 204 -598 117 -311 221 -581 231 -601 10 -20 29 -43 42 -52 31
-20 145 -58 327 -107 80 -22 323 -88 540 -147 393 -106 396 -107 510 -107 100
-1 120 2 156 21 89 47 129 128 122 250 -4 73 -26 138 -325 958 -176 484 -364
1002 -418 1150 -53 149 -109 292 -123 319 -88 163 -225 224 -360 161z"/>
</g>
</svg>
